<?xml version="1.0" encoding="UTF-8"?>
<!DOCTYPE svg PUBLIC "-//W3C//DTD SVG 1.1//EN" "http://www.w3.org/Graphics/SVG/1.1/DTD/svg11.dtd">
<!-- Creator: CorelDRAW 2019 (64-Bit) -->
<svg xmlns="http://www.w3.org/2000/svg" xml:space="preserve" width="1.10541in" height="1.10678in" version="1.1" style="shape-rendering:geometricPrecision; text-rendering:geometricPrecision; image-rendering:optimizeQuality; fill-rule:evenodd; clip-rule:evenodd"
viewBox="0 0 810.39 811.4"
 xmlns:xlink="http://www.w3.org/1999/xlink">
 <defs>
  <style type="text/css">
   <![CDATA[
    .fil3 {fill:black}
    .fil4 {fill:#1A1A1A}
    .fil12 {fill:#264600}
    .fil6 {fill:#299A00}
    .fil8 {fill:#333333}
    .fil1 {fill:#344A5E}
    .fil0 {fill:#415A6B}
    .fil14 {fill:#663333}
    .fil13 {fill:#663333}
    .fil10 {fill:#854E43}
    .fil11 {fill:#9C684E}
    .fil9 {fill:#9C684E}
    .fil7 {fill:#ADB3BA}
    .fil15 {fill:#F3705A}
    .fil16 {fill:#F3F3F3}
    .fil2 {fill:#F7B64C}
    .fil5 {fill:#FFD15C}
    .fil17 {fill:white}
   ]]>
  </style>
 </defs>
 <g id="Layer_x0020_1">
  <metadata id="CorelCorpID_0Corel-Layer"/>
  <g id="conversation.svg">
   <polygon class="fil0" points="413.29,809.71 399.79,735.49 247.97,786.09 256.41,809.71 "/>
   <path class="fil1" d="M443.65 507.76l15.18 -13.5c0,0 53.98,47.23 33.74,64.1 -18.56,18.56 -50.61,-35.42 -48.92,-50.61z"/>
   <path class="fil2" d="M450.4 507.76c0,0 8.43,-5.06 8.43,-8.43 0,-3.37 5.06,-10.12 10.12,-18.56 6.75,-8.43 16.87,-15.18 20.24,-18.56 3.37,-3.37 15.18,-25.3 20.24,-28.68 3.37,-3.37 8.43,0 10.12,0 1.69,1.69 0,6.75 -1.69,11.81 -1.69,5.06 -16.87,23.62 -18.56,26.99 -1.69,3.37 1.69,5.06 6.75,6.75 5.06,0 26.99,1.69 33.74,-3.37 6.75,-3.37 8.43,-3.37 13.49,-3.37 3.37,-1.69 23.62,-13.49 28.68,0l-10.12 6.75c0,0 -11.81,6.75 -18.56,10.12 -6.75,1.69 -16.87,6.75 -16.87,6.75 0,0 0,5.06 1.69,8.43 1.69,3.37 -1.69,10.12 -5.06,11.81 0,0 0,6.75 -3.37,11.81 -3.37,5.06 -3.37,5.06 -5.06,8.43 -1.69,3.37 -8.43,6.75 -13.5,6.75 -5.06,0 -20.24,6.75 -28.68,8.43 -8.43,3.37 -48.92,6.75 -48.92,6.75 0,0 -15.18,-37.12 16.87,-50.61z"/>
   <path class="fil3" d="M458.84 494.26c0,0 -16.87,13.49 0,43.86 16.87,30.37 33.74,21.93 33.74,21.93 0,0 -52.29,43.86 -75.91,52.29 -23.62,8.43 -37.11,8.43 -37.11,8.43l-11.81 -80.97c0,0 32.05,-13.49 42.17,-15.18 10.12,-1.69 10.12,-10.12 16.87,-11.81 8.44,-1.69 32.05,-18.56 32.05,-18.56z"/>
   <g>
    <path class="fil4" d="M374.49 635.96l10.12 50.61c0,0 8.43,77.6 18.56,89.4 5.06,6.75 6.75,21.93 8.43,33.74l21.93 0c-1.69,-8.43 -5.06,-18.56 -10.12,-28.68 -11.81,-21.93 -20.24,-57.36 -21.93,-75.91 -1.69,-18.55 -11.81,-185.56 -16.87,-209.17 -5.06,-23.62 -11.81,-33.74 -15.18,-53.98 -3.37,-20.24 -5.06,-62.42 -13.5,-70.85 -8.43,-6.75 -42.17,-10.12 -42.17,-10.12 0,0 11.81,47.23 20.24,64.1 6.75,16.87 38.8,178.81 40.49,210.86z"/>
    <path class="fil4" d="M337.38 440.28c0,1.69 0,1.69 1.69,3.37 -1.69,0 -1.69,-1.69 -1.69,-3.37z"/>
   </g>
   <path class="fil5" d="M344.13 210.86l23.62 26.99c0,0 1.69,20.24 5.06,26.99 1.69,6.75 -10.12,15.18 -11.81,18.56 -1.69,3.37 6.75,25.3 6.75,33.74 0,8.43 -10.12,8.43 -15.18,8.43 0,0 0,16.87 -8.43,13.5 0,0 6.75,6.75 0,11.81 -6.75,5.06 1.69,26.99 -18.56,25.3 -20.24,-1.69 -38.8,-1.69 -38.8,-1.69l1.69 72.54 -74.23 -21.93 -21.93 -86.03c0,0 10.12,-16.87 15.18,-25.3 3.37,-8.43 40.49,-80.97 40.49,-80.97l96.15 -21.93z"/>
   <path class="fil2" d="M286.77 374.49c0,0 10.12,1.69 23.62,1.69 -3.37,-1.69 -40.49,-28.68 -53.98,-59.04 0,0 6.75,47.23 30.37,77.6l0 -20.24z"/>
   <path class="fil6" d="M394.74 752.35l0 0c-10.12,20.24 -40.49,45.55 -143.39,37.11l-70.85 -364.37 55.67 -21.93 16.87 6.75c0,0 10.12,8.43 13.49,15.18 3.37,6.75 10.12,8.43 10.12,8.43 0,0 10.12,-23.62 10.12,-35.42 0,-10.12 37.11,10.12 37.11,10.12 0,0 3.37,6.75 8.43,18.56l0 0c1.69,1.69 3.37,6.75 5.06,15.18 0,1.69 0,1.69 1.69,3.37 1.69,3.37 1.69,6.75 3.37,11.81 0,1.69 0,1.69 0,3.37l0 1.69 0 1.69c0,1.69 0,3.37 1.69,5.06l0 1.69 0 1.69c0,1.69 0,1.69 0,3.37 0,1.69 0,3.37 1.69,5.06 0,1.69 0,1.69 0,3.37l0 0 0 1.69 0 1.69c0,1.69 0,1.69 0,3.37 1.69,5.06 1.69,10.12 3.37,15.18l0 1.69c1.69,8.43 3.37,18.56 5.06,28.68 0,1.69 0,1.69 0,3.37 1.69,5.06 1.69,10.12 3.37,13.49 0,1.69 0,3.37 0,5.06 0,1.69 0,3.37 0,5.06 0,1.69 0,3.37 1.69,5.06 0,1.69 0,1.69 0,3.37 0,1.69 0,3.37 1.69,5.06 0,1.69 0,1.69 0,3.37 0,1.69 0,3.37 1.69,5.06l0 1.69c0,1.69 0,3.37 1.69,5.06l0 0c0,3.37 1.69,6.75 1.69,8.43 0,1.69 0,3.37 0,3.37 0,1.69 0,3.37 0,5.06 0,3.37 0,5.06 1.69,8.43l0 1.69c0,1.69 0,3.37 0,5.06 0,1.69 0,3.37 0,5.06l0 1.69 0 1.69c0,1.69 0,3.37 0,5.06l10.12 50.61c6.75,-1.69 10.12,35.43 16.87,64.1z"/>
   <path class="fil7" d="M328.95 787.78c3.37,-8.43 8.43,-16.87 8.43,-23.62 1.69,-11.81 -5.06,-47.23 -15.18,-72.54 -10.12,-25.3 -28.68,-89.41 -32.05,-109.65 -3.37,-20.24 -3.37,-45.55 -10.12,-70.85 -6.75,-25.3 -6.75,-52.3 -6.75,-52.3 0,10.12 1.69,42.17 5.06,52.3 3.37,10.12 10.12,70.85 10.12,70.85 3.37,25.3 23.62,87.72 33.74,111.34 10.12,23.62 13.49,62.42 13.49,70.85 0,3.37 -3.37,15.18 -6.75,23.62l0 0z"/>
   <path class="fil4" d="M268.22 809.71c5.06,-21.93 10.12,-59.04 10.12,-82.66 0,-37.11 -18.55,-82.66 -18.55,-82.66l-101.22 -280.03c0,0 -59.04,21.93 -87.72,33.74 -28.68,11.81 -35.42,26.99 -35.42,26.99l38.8 384.61 194 0z"/>
   <path class="fil8" d="M183.87 342.44c0,0 -30.37,18.56 -35.43,28.68 -5.06,10.12 -5.06,28.68 -5.06,28.68l20.24 11.81 -15.18 13.5c0,0 129.89,241.23 133.26,300.27 0,0 -16.87,-99.53 -28.68,-151.82 -11.81,-52.29 -69.16,-212.55 -69.16,-231.1z"/>
   <path class="fil5" d="M253.04 674.76l50.61 0c0,0 3.37,1.69 8.43,5.06 3.37,1.69 16.87,10.12 21.93,10.12 5.06,1.69 6.75,3.37 6.75,3.37l13.5 1.69c0,0 6.75,21.93 -28.68,11.81l-20.24 -8.43c0,0 15.18,8.43 16.87,11.81 3.37,3.37 16.87,10.12 20.24,11.81 1.69,1.69 10.12,5.06 11.81,6.75 1.69,1.69 16.87,0 18.56,8.43 1.69,6.75 -8.43,6.75 -8.43,6.75l-20.24 0c0,0 -3.37,11.81 -8.43,10.12 -6.75,-1.69 -6.75,-1.69 -6.75,-1.69 0,0 1.69,5.06 0,8.43 -1.69,3.37 -6.75,5.06 -11.81,3.37 -5.06,-1.69 -5.06,-1.69 -5.06,-1.69 0,0 1.69,10.12 -11.81,6.75 -13.49,-1.69 -13.49,-5.06 -18.55,-6.75 -3.37,0 -6.75,-1.69 -10.12,-5.06 -5.06,-3.37 -26.99,-16.87 -26.99,-16.87 0,0 3.37,-57.36 8.44,-65.79z"/>
   <path class="fil8" d="M384.61 686.57c-1.69,-3.37 -30.36,-87.72 -32.05,-119.77 -3.37,-33.74 -23.62,-113.02 -42.17,-148.45 -11.81,-21.93 -6.75,-33.74 -1.69,-42.17 3.37,0 8.43,1.69 13.5,1.69l8.43 13.5 8.43 0c0,0 23.62,77.6 33.74,134.95 8.44,55.67 8.44,140.01 11.81,160.26z"/>
   <path class="fil7" d="M495.95 683.19c0,0 -40.49,-3.37 -48.92,-11.81 -8.43,-8.44 -8.43,-53.98 1.69,-59.04 10.12,-5.06 47.23,70.85 47.23,70.85z"/>
   <path class="fil9" d="M421.72 605.59c0,0 -23.62,-6.75 -15.18,-23.62l28.68 5.06c0,0 23.62,5.06 37.11,13.5 13.5,8.43 0,62.42 0,62.42 0,0 -3.37,3.37 -15.18,3.37 -11.81,0 -23.62,-1.69 -30.36,-5.06 -8.43,-3.37 -26.99,-8.43 -35.42,-16.87 -8.43,-6.75 -37.11,-37.11 -37.11,-37.11 0,0 3.37,-8.43 20.24,0 0,0 13.5,5.06 15.18,6.75l16.87 3.37c0,0 20.24,0 23.62,0 3.37,-1.69 6.75,-5.06 6.75,-5.06 0,0 -10.12,-3.37 -15.18,-6.75z"/>
   <path class="fil1" d="M465.58 622.47c0,0 13.49,60.73 -16.87,48.92l92.78 59.04 23.62 -70.85 -99.53 -37.11z"/>
   <path class="fil9" d="M438.6 600.54c0,0 -1.69,-3.37 -10.12,-5.06 -8.43,-1.69 -23.62,-8.43 -28.68,-10.12 -5.06,-1.69 -5.06,-1.69 -10.12,-6.75 -5.06,-5.06 -26.99,-30.36 -26.99,-30.36 0,0 5.06,-5.06 8.43,-1.69l-8.43 -6.75c0,0 11.81,-8.43 23.62,3.37 0,0 15.18,5.06 20.24,13.5l15.18 6.75 28.68 3.37 11.81 -5.06c0,0 -11.81,-5.06 -11.81,-15.18 0,-10.12 11.81,-8.43 18.56,-5.06 6.75,5.06 5.06,6.75 13.5,8.43 8.43,1.69 15.18,5.06 16.87,8.43 1.69,3.37 1.69,3.37 1.69,3.37 0,0 -15.18,40.49 -33.74,40.49 -16.87,-1.68 -28.68,-1.68 -28.68,-1.68z"/>
   <g>
    <path class="fil10" d="M371.12 544.86c0,0 0,0 1.69,1.69 1.69,1.69 3.37,3.37 5.06,5.06 1.69,1.69 5.06,5.06 6.75,6.75 3.37,3.37 5.06,5.06 8.43,8.44 3.37,3.37 6.75,5.06 8.43,8.43l1.69 1.69 1.69 1.69c1.69,0 3.37,1.69 5.06,1.69 3.37,1.69 5.06,3.37 6.75,3.37l1.69 1.69 0 0 0 0c0,0 -1.69,0 -1.69,-1.69 0,0 -1.69,-1.69 -3.37,-1.69 -1.69,0 -1.69,-1.69 -3.37,-1.69 -1.69,0 -3.37,-1.69 -5.06,-1.69 0,0 -1.69,0 -1.69,-1.69 -1.69,0 -1.69,-1.69 -1.69,-1.69 -3.37,-1.69 -6.75,-5.06 -10.12,-8.43 -3.37,-3.37 -6.75,-5.06 -8.43,-8.43 -1.69,-1.69 -1.69,-3.37 -3.37,-3.37 -1.69,-1.69 -1.69,-3.37 -3.37,-3.37 -1.69,-1.69 -3.37,-3.37 -5.06,-5.06 1.69,0 -0,-1.69 -0,-1.69z"/>
    <path class="fil10" d="M381.24 544.86c0,0 0,0 1.69,1.69 1.69,1.69 3.37,3.37 5.06,6.75 1.69,1.69 3.37,5.06 6.75,8.43 3.37,1.69 6.75,5.06 10.12,8.43 1.69,1.69 3.37,3.37 5.06,3.37 1.69,1.69 3.37,1.69 5.06,3.37 3.37,1.69 6.75,3.37 10.12,3.37 3.37,1.69 5.06,1.69 6.75,1.69 1.69,0 3.37,1.69 3.37,1.69 0,0 -1.69,0 -3.37,0 -1.69,0 -5.06,-1.69 -6.75,-1.69 -1.69,0 -3.37,-1.69 -5.06,-1.69 -1.69,0 -3.37,-1.69 -5.06,-1.69 -3.37,-1.69 -6.75,-5.06 -10.12,-6.75 -1.69,-1.69 -3.37,-3.37 -5.06,-3.37 -1.69,-1.69 -3.37,-3.37 -5.06,-3.37 -1.69,-1.69 -3.37,-3.37 -3.37,-5.06 -1.69,-1.69 -1.69,-3.37 -3.37,-3.37 -1.69,-3.37 -3.37,-5.06 -3.37,-6.75 -3.38,-5.06 -3.38,-5.06 -3.38,-5.06z"/>
   </g>
   <path class="fil11" d="M671.38 286.77l-47.23 -5.06c0,0 -18.56,40.49 -18.56,48.92 0,0 3.37,8.44 0,15.18 -3.37,6.75 -18.55,20.24 -20.24,26.99 -1.69,6.75 1.69,10.12 5.06,13.5 3.37,1.69 6.75,3.37 6.75,3.37 0,0 -10.12,15.18 0,18.56 0,0 -6.75,1.69 -3.37,10.12 3.37,8.43 -13.5,28.68 13.49,33.74 26.99,5.06 37.11,20.24 35.43,32.05 -1.69,11.81 -32.05,52.3 -32.05,52.3 -53.98,72.53 35.43,33.74 52.29,11.81l86.03 -64.1 -11.81 -129.89 -65.79 -67.48z"/>
   <path class="fil12" d="M624.15 534.75l-23.62 21.93 16.87 -50.61c0,0 -30.36,25.3 -43.86,48.92 -13.49,23.62 -43.86,126.52 -37.11,175.44 6.75,50.61 6.75,50.61 6.75,50.61l131.58 -251.35 16.87 -38.8 -67.48 43.86z"/>
   <path class="fil0" d="M614.03 501.01c0,0 -32.05,45.55 -37.11,69.16 -5.06,23.62 -37.11,96.15 -38.8,134.95 -1.69,40.49 -1.69,40.49 -1.69,40.49 0,0 -8.43,-96.15 10.12,-146.76 18.56,-50.61 52.3,-96.15 52.3,-96.15l15.18 -1.69z"/>
   <path class="fil4" d="M745.61 809.71c-3.37,-6.75 -6.75,-13.49 -10.12,-16.87 -8.43,-10.12 -1.69,-35.42 -3.37,-50.61 -1.69,-15.18 33.74,-74.22 45.55,-101.22 10.12,-28.68 25.3,-118.08 10.12,-146.76 -15.18,-28.68 -45.55,-30.36 -45.55,-30.36 0,0 -75.91,60.73 -114.71,92.78 -38.8,32.05 -97.84,107.96 -107.96,168.69 -6.75,35.42 -6.75,67.48 -6.75,86.03l232.79 -1.69 0 0z"/>
   <path class="fil12" d="M716.93 460.52l26.99 21.93c0,0 -50.61,25.3 -92.78,60.73 -42.17,35.43 -91.09,91.09 -101.21,111.34 0,0 35.42,-75.91 94.46,-128.21 57.35,-52.29 72.54,-65.79 72.54,-65.79z"/>
   <path class="fil13" d="M614.03 453.77l0 0c13.49,5.06 21.93,11.81 25.3,18.56 33.74,-18.56 45.55,-55.67 47.23,-55.67 -37.11,43.86 -72.54,37.11 -72.54,37.11z"/>
   <path class="fil6" d="M723.68 450.4l11.81 20.24c-15.18,11.81 -33.74,25.3 -55.67,37.11l-8.43 -5.06c0,0 -8.43,18.56 -47.23,33.74 16.87,-28.68 70.85,-74.22 94.46,-86.03 1.69,-1.69 3.37,-1.69 5.06,0z"/>
   <path class="fil14" d="M622.47 281.71c0,0 6.75,20.24 21.93,52.3 15.18,32.05 25.3,50.61 45.55,47.23 20.24,-3.37 21.93,-15.18 30.36,-3.37 8.43,11.81 -3.37,62.42 11.81,87.72 15.18,25.3 60.73,69.16 53.98,123.14 -8.44,53.98 -8.44,53.98 -8.44,53.98 0,0 28.68,-25.3 32.05,-65.79 3.37,-40.49 -6.75,-60.73 -10.12,-119.77 -3.37,-59.04 -1.69,-133.27 -25.3,-163.63 -23.62,-30.36 -111.34,-62.42 -151.82,-11.81z"/>
   <ellipse class="fil10" transform="matrix(-0.124671 -0.0487816 0.0487816 -0.124671 705.27 394.626)" rx="126.01" ry="201.63"/>
   <path class="fil0" d="M641.02 598.85c0,0 18.56,-80.97 79.28,-80.97 60.73,0 60.73,52.29 57.36,79.28 -3.37,25.3 -18.56,50.61 -30.36,64.1 -13.5,13.49 -106.28,107.96 -106.28,107.96 0,0 -20.24,23.62 -40.49,15.18 -20.24,-8.43 -75.91,-67.48 -80.97,-79.28 -5.06,-11.81 -18.56,-28.68 -28.68,-37.11 -10.12,-6.75 -65.79,-67.48 -65.79,-67.48 0,0 57.36,-15.18 69.16,-30.37 11.81,-15.18 6.75,-20.24 6.75,-20.24 0,0 25.3,30.36 32.05,40.49 6.75,10.12 32.05,32.05 40.49,47.23 8.43,15.18 15.18,30.36 20.24,37.11 5.06,6.75 15.18,11.81 16.87,11.81 1.69,0 1.69,-11.81 3.37,-15.18 0,-3.37 26.99,-72.54 26.99,-72.54z"/>
   <g>
    <path class="fil15" d="M622.47 281.71c0,0 0,26.99 13.5,53.98 13.49,26.99 18.56,35.42 18.56,35.42 0,0 -23.62,-60.73 -21.93,-74.22l-10.12 -15.18zm0 0l0 0 0 0z"/>
   </g>
   <path class="fil6" d="M639.34 470.64l-45.55 35.42c0,0 15.18,26.99 11.81,38.8 -5.06,11.81 -5.06,11.81 -5.06,11.81 0,0 42.17,-65.79 43.86,-72.54 1.69,-6.75 -5.06,-13.49 -5.06,-13.49z"/>
   <path class="fil1" d="M205.8 313.76c0,0 10.12,6.75 18.56,-10.12 8.43,-16.87 8.43,-32.05 21.93,-35.43 13.49,-3.37 23.62,18.56 25.3,37.11l10.12 0c0,0 -1.69,-21.93 11.81,-32.05 11.81,-10.12 48.92,-21.93 55.67,-28.68 6.75,-6.75 20.24,-6.75 20.24,-6.75 0,0 25.3,-13.5 10.12,-40.49 -16.87,-26.99 -74.22,-72.54 -129.89,-40.49 -84.35,47.23 -28.68,113.02 -43.86,156.88z"/>
   <g id="_2452788263872">
    <path class="fil16" d="M195.68 332.32c0,0 42.17,65.79 57.36,77.6 0,0 -8.43,-1.69 -20.24,3.37 -11.81,5.06 -45.55,16.87 -45.55,16.87 0,0 -1.69,-57.36 -5.06,-69.16 -1.69,-11.81 1.69,-21.93 13.49,-28.68z"/>
    <path class="fil16" d="M283.4 382.92c-1.69,-3.37 -3.37,-6.75 -3.37,-8.43l0 0c1.69,3.37 3.37,5.06 3.37,8.43z"/>
    <path class="fil16" d="M318.82 399.79c1.69,3.37 10.12,13.49 -21.93,42.17 -6.75,6.75 -20.24,5.06 -23.62,18.56 0,0 0,-18.56 1.69,-26.99 1.69,-8.43 11.81,-28.68 6.75,-48.92 0,-3.37 -1.69,-6.75 -3.37,-8.43l0 0 18.56 -1.69c5.06,0 8.43,1.69 11.81,3.37l21.93 21.93c1.69,-1.69 -11.81,-3.37 -11.81,0z"/>
   </g>
   <path class="fil3" d="M20.24 494.26c0,0 -5.06,-69.16 26.99,-74.22 33.74,-5.06 55.67,87.72 60.73,114.71 3.37,26.99 3.37,94.46 0,97.84 -3.37,3.37 8.43,16.87 10.12,21.93 1.69,5.06 21.93,-1.69 32.05,3.37 10.12,5.06 20.24,15.18 25.3,15.18 5.06,0 80.97,0 80.97,0 0,0 -15.18,80.97 -10.12,107.96 0,0 -91.09,-16.87 -107.96,-23.62 -16.87,-6.75 -82.66,-30.36 -101.21,-38.8 -18.56,-8.43 -37.11,-23.62 -37.11,-40.49 0,-16.87 20.24,-183.87 20.24,-183.87z"/>
   <path class="fil12" d="M506.07 89.4c0,50.61 59.04,89.41 133.26,89.41l1.69 0 91.09 48.92 0 -74.22c23.62,-16.87 38.8,-38.8 38.8,-64.1 0,-50.61 -59.04,-89.41 -133.27,-89.41 -70.85,0 -131.58,40.49 -131.58,89.4z"/>
   <g id="_2452788303136">
    <circle class="fil17" cx="710.18" cy="89.4" r="21.93"/>
    <circle class="fil17" cx="639.33" cy="89.4" r="21.93"/>
    <circle class="fil17" cx="570.17" cy="89.4" r="21.93"/>
   </g>
   <path class="fil6" d="M647.77 158.57c0,50.61 -59.04,89.4 -133.26,89.4l-1.69 0 -91.09 48.92 0 -74.22c-23.62,-16.87 -38.8,-38.8 -38.8,-64.1 0,-50.61 59.04,-89.41 133.26,-89.41 72.53,-0 131.58,40.48 131.58,89.41z"/>
   <g id="_2452788302912">
    <circle class="fil17" cx="445.34" cy="158.57" r="21.93"/>
    <circle class="fil17" cx="514.5" cy="158.57" r="21.93"/>
    <circle class="fil17" cx="585.35" cy="158.57" r="21.93"/>
   </g>
   <g id="_2452788301536">
   </g>
   <g id="_2452788301824">
   </g>
   <g id="_2452788300416">
   </g>
   <g id="_2452788300544">
   </g>
   <g id="_2452788298208">
   </g>
   <g id="_2452788299488">
   </g>
   <g id="_2452788299424">
   </g>
   <g id="_2452788300000">
   </g>
   <g id="_2452788296256">
   </g>
   <g id="_2452788297408">
   </g>
   <g id="_2452788297184">
   </g>
   <g id="_2452788297568">
   </g>
   <g id="_2452788298016">
   </g>
   <g id="_2452788295968">
   </g>
   <g id="_2452788295520">
   </g>
  </g>
 </g>
</svg>
