<?xml version="1.0" encoding="UTF-8"?>
<!DOCTYPE svg PUBLIC "-//W3C//DTD SVG 1.1//EN" "http://www.w3.org/Graphics/SVG/1.1/DTD/svg11.dtd">
<!-- Creator: CorelDRAW 2019 (64-Bit) -->
<svg xmlns="http://www.w3.org/2000/svg" xml:space="preserve" width="1.0221in" height="1.02109in" version="1.1" style="shape-rendering:geometricPrecision; text-rendering:geometricPrecision; image-rendering:optimizeQuality; fill-rule:evenodd; clip-rule:evenodd"
viewBox="0 0 234.54 234.3"
 xmlns:xlink="http://www.w3.org/1999/xlink">
 <defs>
  <style type="text/css">
   <![CDATA[
    .fil0 {fill:lime}
    .fil1 {fill:#264600}
    .fil2 {fill:#299A00}
   ]]>
  </style>
 </defs>
 <g id="Layer_x0020_1">
  <metadata id="CorelCorpID_0Corel-Layer"/>
  <g id="_24-hours.svg">
   <path class="fil0" d="M201.94 32.78c-43.47,-43.47 -114.28,-43.47 -158.23,0l10.26 10.26c38.09,-38.09 99.63,-38.09 137.23,0 37.61,38.09 38.09,99.63 0,137.23l10.26 10.26c43.95,-43.47 43.95,-114.28 0.49,-157.75z"/>
   <path class="fil1" d="M161.89 157.32l-14.65 14.65c-4.88,4.88 -14.16,4.88 -24.91,0.49 -10.74,-4.4 -23.44,-13.19 -35.16,-24.42 -23.44,-23.44 -34.19,-50.3 -24.42,-60.07l14.65 -14.65 -61.05 -61.54 -7.33 6.84c-24.42,24.42 2.44,90.35 59.58,147.49 28.81,28.81 59.58,49.33 85.95,60.07 26.86,10.75 49.33,11.23 61.54,-0.98l6.84 -6.84 -61.05 -61.05z"/>
   <g>
    <path class="fil2" d="M168.73 150.48l-8.79 8.79 61.05 61.05 8.79 -8.79c6.35,-6.35 6.35,-16.12 0,-22.46l-39.07 -39.07c-5.86,-5.86 -15.63,-5.86 -21.98,0.49z"/>
    <path class="fil2" d="M23.19 4.46l-8.79 8.79 61.05 61.05 8.79 -8.79c6.35,-6.35 6.35,-16.12 0,-22.47l-39.07 -39.07c-5.86,-5.37 -16.12,-5.37 -21.98,0.49z"/>
   </g>
   <g>
    <path class="fil2" d="M108.17 95.3c1.47,-1.95 2.44,-3.91 2.44,-5.86 0,-1.95 -0.49,-3.42 -1.95,-4.88 -1.46,-1.46 -2.93,-1.95 -4.88,-1.95 -3.91,0 -7.33,2.44 -10.74,7.81l-10.74 -6.35c2.93,-4.4 5.86,-7.33 9.28,-9.77 3.42,-2.44 7.33,-3.42 12.7,-3.42 5.37,0 9.77,1.47 13.19,4.88 3.91,3.42 5.86,7.81 5.86,13.19 0,2.93 -0.98,5.86 -2.44,8.79 -1.47,2.93 -4.4,6.35 -8.3,10.74l-10.74 11.23 23.44 0 0 11.72 -42 0 0 -9.77 17.09 -17.58c3.42,-3.91 5.86,-6.35 7.81,-8.79z"/>
    <polygon class="fil2" points="156.03,106.04 156.03,95.79 168.73,95.79 168.73,106.04 175.56,106.04 175.56,117.27 168.73,117.27 168.73,131.44 156.03,131.44 156.03,117.27 132.1,117.27 132.1,107.51 153.1,72.83 167.26,72.83 147.24,106.04 "/>
    <path class="fil2" d="M191.68 117.76l0 13.19 -6.84 0 0 -34.19 6.84 0 0 12.21c1.95,-1.95 4.4,-3.42 6.84,-3.42 2.44,0 4.88,0.98 6.35,2.93 1.95,1.95 2.44,4.4 2.44,7.33l0 15.14 -6.84 0 0 -13.67c0,-3.91 -1.47,-5.86 -4.4,-5.86 -1.47,0 -2.44,0.49 -3.42,1.47 -0.49,1.47 -0.98,2.93 -0.98,4.88z"/>
   </g>
   <g>
   </g>
   <g>
   </g>
   <g>
   </g>
   <g>
   </g>
   <g>
   </g>
   <g>
   </g>
   <g>
   </g>
   <g>
   </g>
   <g>
   </g>
   <g>
   </g>
   <g>
   </g>
   <g>
   </g>
   <g>
   </g>
   <g>
   </g>
   <g>
   </g>
  </g>
 </g>
</svg>
