<?xml version="1.0" encoding="UTF-8"?>
<!DOCTYPE svg PUBLIC "-//W3C//DTD SVG 1.1//EN" "http://www.w3.org/Graphics/SVG/1.1/DTD/svg11.dtd">
<!-- Creator: CorelDRAW 2019 (64-Bit) -->
<svg xmlns="http://www.w3.org/2000/svg" xml:space="preserve" width="0.735949in" height="1.41779in" version="1.1" style="shape-rendering:geometricPrecision; text-rendering:geometricPrecision; image-rendering:optimizeQuality; fill-rule:evenodd; clip-rule:evenodd"
viewBox="0 0 78.77 151.74"
 xmlns:xlink="http://www.w3.org/1999/xlink">
 <defs>
  <style type="text/css">
   <![CDATA[
    .fil0 {fill:#264600}
    .fil1 {fill:#299A00}
   ]]>
  </style>
 </defs>
 <g id="Layer_x0020_1">
  <metadata id="CorelCorpID_0Corel-Layer"/>
  <g id="icon.svg">
   <g>
    <path class="fil0" d="M7.59 49.2c-1.39,0.27 -2.83,-1.15 -3.23,-3.16 -0.4,-2.02 0.4,-3.86 1.79,-4.11 1.39,-0.27 2.83,1.15 3.23,3.16 0.4,2.01 -0.41,3.85 -1.79,4.11zm-2.82 1.08c0.04,-1.66 -0.86,-3.04 -2.01,-3.06 -1.15,-0.02 -2.11,1.3 -2.14,2.97 -0.04,1.66 0.86,3.03 2.01,3.05 1.14,0.03 2.11,-1.29 2.15,-2.96zm11.35 -8.22c-0,-2.58 -1.41,-4.66 -3.14,-4.66 -1.74,-0 -3.15,2.09 -3.15,4.66 0,2.57 1.41,4.66 3.15,4.66 1.73,-0 3.15,-2.1 3.15,-4.67zm-16.11 26.49c-0.51,15.22 9.8,19.89 9.8,35.49 0,5.73 3.83,12.08 10.46,12.08 9.74,0 12.08,-5.29 12.28,-11.3 0.37,-11.17 -10.21,-12.44 -10.21,-22.28 0,-12.32 13.57,-12.23 13.57,-23.41 0,-7.72 -6.73,-8.6 -10.31,-8.6 -6.69,0 -25.08,2.8 -25.59,18.02zm39.07 -29.11c0.68,-4.39 -1.15,-8.33 -4.09,-8.8 -2.94,-0.46 -5.88,2.72 -6.57,7.11 -0.68,4.39 1.15,8.33 4.1,8.79 2.95,0.47 5.88,-2.71 6.57,-7.11zm-13.25 0.71c0.29,-3.1 -1.18,-5.77 -3.32,-5.98 -2.14,-0.21 -4.12,2.14 -4.42,5.24 -0.31,3.1 1.18,5.77 3.32,5.98 2.14,0.2 4.12,-2.14 4.43,-5.24z"/>
   </g>
   <g>
   </g>
   <g>
   </g>
   <g>
   </g>
   <g>
   </g>
   <g>
   </g>
   <g>
   </g>
   <g>
   </g>
   <g>
   </g>
   <g>
   </g>
   <g>
   </g>
   <g>
   </g>
   <g>
   </g>
   <g>
   </g>
   <g>
   </g>
   <g>
   </g>
  </g>
  <g id="_2452882741760">
   <path class="fil1" d="M59.28 112.75c3.96,0 7.18,3.26 7.18,7.22 0.02,0.29 0.36,7.12 -2.51,11.9 -1.69,2.81 -3.9,3.23 -5.07,3.23 -2.21,0 -4.24,-1.45 -4.73,-3.38 -0.72,-2.86 0.54,-4.4 1.38,-5.41 0.46,-0.56 0.72,-0.9 0.69,-1.21 -0.04,-0.35 -0.43,-1.05 -2.05,-2.33 -0.82,-0.65 -1.81,-2 -2.04,-3.15 -0.42,-2.06 -0.16,-3.69 0.79,-4.85 1.46,-1.79 4.17,-2.02 6.37,-2.02zm-5.45 6.52c0.14,0.69 0.86,1.7 1.42,2.13 1.78,1.41 2.59,2.46 2.71,3.51 0.11,1.06 -0.52,1.83 -1.07,2.51 -0.79,0.97 -1.54,1.88 -1.04,3.88 0.29,1.15 1.62,2.06 3.03,2.06 1.37,0 2.64,-0.85 3.57,-2.39 2.59,-4.31 2.27,-10.84 2.26,-10.95 0,-3.05 -2.44,-5.53 -5.43,-5.53 -1.82,0 -4.03,0.16 -5.02,1.37 -0.6,0.73 -0.74,1.87 -0.43,3.4z"/>
   <circle class="fil1" cx="54.56" cy="110.1" r="1.96"/>
   <circle class="fil1" cx="58.97" cy="110.02" r="1.6"/>
   <circle class="fil1" cx="62.21" cy="111" r="1.24"/>
   <circle class="fil1" cx="64.79" cy="112.54" r="0.99"/>
   <circle class="fil1" cx="66.21" cy="114.56" r="0.74"/>
   <g>
    <path class="fil1" d="M47.67 139.4c-1.63,1.29 -2.01,1.98 -2.05,2.33 -0.03,0.32 0.23,0.65 0.69,1.21 0.83,1.02 2.09,2.56 1.38,5.41 -0.48,1.93 -2.51,3.38 -4.73,3.38 -1.17,0 -3.37,-0.42 -5.06,-3.23 -2.88,-4.78 -2.53,-11.61 -2.51,-11.85 0,-4.01 3.22,-7.27 7.18,-7.27 2.2,0 4.92,0.23 6.37,2.01 0.94,1.16 1.21,2.79 0.79,4.85 -0.24,1.15 -1.23,2.5 -2.04,3.15zm-0.09 -6.9c-0.99,-1.22 -3.2,-1.37 -5.02,-1.37 -2.99,0 -5.43,2.48 -5.43,5.58 -0,0.06 -0.34,6.58 2.26,10.9 0.93,1.54 2.19,2.39 3.57,2.39 1.41,0 2.74,-0.9 3.03,-2.06 0.5,-2 -0.24,-2.92 -1.04,-3.88 -0.56,-0.68 -1.19,-1.45 -1.07,-2.51 0.11,-1.06 0.92,-2.11 2.71,-3.51 0.55,-0.44 1.27,-1.44 1.42,-2.13 0.31,-1.52 0.17,-2.67 -0.43,-3.4z"/>
    <circle class="fil1" cx="47.27" cy="126.73" r="1.96"/>
    <path class="fil1" d="M42.86 125.06c-0.88,0 -1.6,0.72 -1.6,1.6 0,0.88 0.72,1.6 1.6,1.6 0.88,0 1.6,-0.72 1.6,-1.6 0,-0.88 -0.72,-1.6 -1.6,-1.6z"/>
    <circle class="fil1" cx="39.62" cy="127.63" r="1.24"/>
    <circle class="fil1" cx="37.04" cy="129.17" r="0.99"/>
    <path class="fil1" d="M35.62 130.45c-0.41,0 -0.74,0.33 -0.74,0.74 0,0.41 0.33,0.74 0.74,0.74 0.41,0 0.74,-0.33 0.74,-0.74 0,-0.41 -0.33,-0.74 -0.74,-0.74z"/>
   </g>
  </g>
  <g id="icon.svg_0">
   <g>
    <path class="fil0" d="M71.78 18.6c1.27,0.27 2.6,-1.15 2.97,-3.16 0.37,-2.02 -0.37,-3.86 -1.65,-4.11 -1.28,-0.27 -2.6,1.15 -2.97,3.16 -0.37,2.01 0.38,3.85 1.65,4.11zm2.59 1.08c-0.03,-1.66 0.79,-3.04 1.85,-3.06 1.06,-0.02 1.94,1.3 1.97,2.97 0.04,1.66 -0.79,3.03 -1.84,3.05 -1.05,0.03 -1.94,-1.29 -1.98,-2.96zm-10.44 -8.22c0,-2.58 1.3,-4.66 2.89,-4.66 1.6,-0 2.9,2.09 2.9,4.66 0,2.57 -1.29,4.66 -2.89,4.66 -1.59,-0 -2.89,-2.09 -2.89,-4.67zm14.81 26.49c0.47,15.22 -9.01,19.89 -9.01,35.49 0,5.73 -3.52,12.08 -9.62,12.08 -8.96,0 -11.11,-5.29 -11.3,-11.3 -0.34,-11.17 9.39,-12.44 9.39,-22.28 0,-12.32 -12.48,-12.23 -12.48,-23.41 0,-7.72 6.19,-8.6 9.48,-8.6 6.15,0 23.07,2.8 23.54,18.02zm-35.93 -29.11c-0.63,-4.39 1.06,-8.33 3.77,-8.8 2.71,-0.46 5.41,2.72 6.04,7.11 0.63,4.39 -1.06,8.33 -3.77,8.79 -2.71,0.47 -5.41,-2.71 -6.04,-7.11zm12.18 0.71c-0.27,-3.1 1.09,-5.77 3.06,-5.98 1.97,-0.21 3.79,2.14 4.07,5.24 0.28,3.1 -1.09,5.77 -3.05,5.98 -1.97,0.2 -3.79,-2.14 -4.07,-5.24z"/>
   </g>
   <g>
   </g>
   <g>
   </g>
   <g>
   </g>
   <g>
   </g>
   <g>
   </g>
   <g>
   </g>
   <g>
   </g>
   <g>
   </g>
   <g>
   </g>
   <g>
   </g>
   <g>
   </g>
   <g>
   </g>
   <g>
   </g>
   <g>
   </g>
   <g>
   </g>
  </g>
 </g>
</svg>
