<?xml version="1.0" encoding="UTF-8"?>
<!DOCTYPE svg PUBLIC "-//W3C//DTD SVG 1.1//EN" "http://www.w3.org/Graphics/SVG/1.1/DTD/svg11.dtd">
<!-- Creator: CorelDRAW 2019 (64-Bit) -->
<svg xmlns="http://www.w3.org/2000/svg" xml:space="preserve" width="1.42546in" height="1.42546in" version="1.1" style="shape-rendering:geometricPrecision; text-rendering:geometricPrecision; image-rendering:optimizeQuality; fill-rule:evenodd; clip-rule:evenodd"
viewBox="0 0 547.7 547.7"
 xmlns:xlink="http://www.w3.org/1999/xlink">
 <defs>
  <style type="text/css">
   <![CDATA[
    .fil9 {fill:black}
    .fil7 {fill:#299A00}
    .fil1 {fill:#2C9984}
    .fil6 {fill:#324A5E}
    .fil4 {fill:#333333}
    .fil0 {fill:#90DFAA}
    .fil8 {fill:#E6E9EE}
    .fil3 {fill:#F9B54C}
    .fil5 {fill:#FFD05B}
    .fil2 {fill:white}
   ]]>
  </style>
 </defs>
 <g id="Layer_x0020_1">
  <metadata id="CorelCorpID_0Corel-Layer"/>
  <g id="reunion.svg">
   <circle class="fil0" cx="273.85" cy="273.85" r="273.85"/>
   <circle class="fil1" cx="273.85" cy="273.85" r="198.38"/>
   <g>
    <path class="fil2" d="M198.81 231.59c3.45,-8.63 2.16,-16.82 -2.16,-18.54 -0.86,-0.43 -2.16,-0.43 -3.45,0 -4.74,1.29 -9.92,0.86 -14.66,-0.86l-15.96 -6.04 -8.19 21.13 15.96 6.04c4.74,1.73 9.06,4.74 11.64,9.06 0.43,0.86 1.29,1.73 2.59,2.16 4.74,1.29 10.78,-4.31 14.23,-12.94z"/>
    <path class="fil2" d="M198.81 315.25c-3.45,-8.63 -9.49,-14.23 -13.8,-12.51 -0.86,0.43 -1.72,1.29 -2.59,2.16 -2.59,4.31 -6.9,6.9 -11.64,9.06l-15.96 6.04 7.76 21.13 15.96 -6.04c4.75,-1.72 9.92,-2.59 14.66,-0.86 1.29,0.43 2.16,0.43 3.45,0 4.31,-2.16 5.61,-10.35 2.16,-18.98z"/>
   </g>
   <rect class="fil3" x="37.09" y="221.24" width="53.04" height="100.05"/>
   <g>
    <path class="fil4" d="M184.58 208.3l-13.37 33.64 -0.43 0c-1.29,-0.43 -2.59,-0.86 -3.88,-1.29 0,0 -45.71,-18.11 -46.14,-18.11 -1.72,0 -10.35,-4.31 -10.35,7.33 0,0 -1.29,23.29 -2.16,32.78l-53.91 0c1.72,-16.39 11.21,-62.53 52.18,-73.75 6.47,-1.73 12.94,-1.73 19.41,-0.86 1.72,0.43 53.91,18.11 53.91,18.11 1.72,0.86 3.45,1.29 4.74,2.16z"/>
    <path class="fil4" d="M180.27 341.13l0 0c0,0 -52.18,18.11 -53.91,18.11 -6.47,0.86 -12.94,0.86 -19.41,-0.86 -41.4,-11.21 -50.89,-57.36 -52.61,-73.75l54.34 0c0.43,9.49 2.16,32.78 2.16,32.78 0,11.64 8.63,7.33 10.35,7.33 0.43,0 41.83,-16.39 45.71,-17.68l13.37 34.07z"/>
   </g>
   <path class="fil5" d="M48.3 225.12l0 91.86c0,8.19 -6.9,15.09 -15.09,15.09l0 0 0 -122.05 0 0c8.19,0 15.09,6.9 15.09,15.1z"/>
   <polygon class="fil6" points="117.3,291.96 81.08,313.09 44.85,291.96 44.85,250.13 81.08,229.43 117.3,250.13 "/>
   <g>
    <path class="fil2" d="M348.89 231.59c-3.45,-8.63 -2.16,-16.82 2.16,-18.54 0.86,-0.43 2.16,-0.43 3.45,0 4.75,1.29 9.92,0.86 14.66,-0.86l15.96 -6.04 8.19 21.13 -15.96 6.04c-4.74,1.73 -9.06,4.74 -11.64,9.06 -0.43,0.86 -1.29,1.73 -2.59,2.16 -4.74,1.29 -10.78,-4.31 -14.23,-12.94z"/>
    <path class="fil2" d="M348.89 315.25c3.45,-8.63 9.49,-14.23 13.8,-12.51 0.86,0.43 1.73,1.29 2.59,2.16 2.59,4.31 6.9,6.9 11.64,9.06l15.96 6.04 -7.76 21.13 -16.39 -6.47c-4.74,-1.72 -9.92,-2.59 -14.66,-0.86 -1.29,0.43 -2.16,0.43 -3.45,0 -3.88,-1.73 -5.18,-9.92 -1.73,-18.54z"/>
   </g>
   <rect class="fil3" x="457.57" y="221.24" width="53.04" height="100.05"/>
   <g>
    <path class="fil7" d="M363.12 208.3l13.37 33.64 0.43 0c1.29,-0.43 2.59,-0.86 3.88,-1.29 0,0 45.71,-18.11 46.14,-18.11 1.72,0 10.35,-4.31 10.35,7.33 0,0 1.29,23.29 2.16,32.78l54.34 0c-1.72,-16.39 -11.21,-62.53 -52.18,-73.75 -6.47,-1.73 -12.94,-1.73 -19.41,-0.86 -1.72,0.43 -53.91,18.11 -53.91,18.11 -2.16,0.86 -3.88,1.29 -5.17,2.16z"/>
    <path class="fil7" d="M367.43 341.13l0 0c0,0 52.18,18.11 53.91,18.11 6.47,0.86 12.94,0.86 19.41,-0.86 41.4,-11.64 50.46,-57.79 52.18,-73.75l-54.34 0c-0.43,9.49 -2.16,32.78 -2.16,32.78 0,11.64 -8.63,7.33 -10.35,7.33 -0.43,0 -41.83,-16.39 -45.71,-17.68l-12.94 34.07z"/>
   </g>
   <path class="fil5" d="M499.4 225.12l0 91.86c0,8.19 6.9,15.09 15.09,15.09l0 0 0 -122.05 0 0c-8.19,0 -15.09,6.9 -15.09,15.1z"/>
   <polygon class="fil6" points="430.4,291.96 466.62,313.09 502.85,291.96 502.85,250.13 466.62,229.43 430.4,250.13 "/>
   <g>
    <path class="fil2" d="M316.11 198.81c8.63,3.45 16.82,2.16 18.54,-2.16 0.43,-0.86 0.43,-2.16 0,-3.45 -1.29,-4.74 -0.86,-9.92 0.86,-14.66l6.04 -15.96 -21.13 -8.19 -6.04 15.96c-1.73,4.74 -4.74,9.06 -9.06,11.64 -0.86,0.43 -1.73,1.29 -2.16,2.59 -1.29,4.74 4.31,10.78 12.94,14.23z"/>
    <path class="fil2" d="M232.45 198.81c8.63,-3.45 14.23,-9.49 12.51,-13.8 -0.43,-0.86 -1.29,-1.73 -2.16,-2.59 -4.31,-2.59 -6.9,-6.9 -9.06,-11.64l-6.04 -15.96 -21.13 7.76 6.04 15.96c1.72,4.74 2.59,9.92 0.86,14.66 -0.43,1.29 -0.43,2.16 0,3.45 2.16,4.31 10.35,5.61 18.98,2.16z"/>
   </g>
   <rect class="fil3" x="226.41" y="37.09" width="100.05" height="53.04"/>
   <g>
    <path class="fil8" d="M339.4 184.58l-33.64 -13.37 0 -0.43c0.43,-1.29 0.86,-2.59 1.29,-3.88 0,0 18.11,-45.71 18.11,-46.14 0,-1.72 4.31,-10.35 -7.33,-10.35 0,0 -23.29,-1.29 -32.78,-2.16l0 -53.91c16.39,1.72 62.53,11.21 73.75,52.18 1.72,6.47 1.72,12.94 0.86,19.41 -0.43,1.72 -18.11,53.91 -18.11,53.91 -0.86,1.72 -1.29,3.45 -2.16,4.74z"/>
    <path class="fil8" d="M206.57 180.27l0 0c0,0 -18.11,-52.18 -18.11,-53.91 -0.86,-6.47 -0.86,-12.94 0.86,-19.41 11.64,-41.4 57.79,-50.46 73.75,-52.18l0 54.34c-9.49,0.43 -32.78,2.16 -32.78,2.16 -11.64,0 -7.33,8.63 -7.33,10.35 0,0.43 16.39,41.83 17.68,45.71l-34.07 12.94z"/>
   </g>
   <path class="fil5" d="M322.58 48.3l-91.86 0c-8.19,0 -15.09,-6.9 -15.09,-15.09l0 0 121.61 0 0 0c0.43,8.19 -6.47,15.09 -14.66,15.09z"/>
   <polygon class="fil6" points="255.74,117.3 234.61,81.08 255.74,44.85 297.57,44.85 318.27,81.08 297.57,117.3 "/>
   <g>
    <path class="fil2" d="M316.11 348.89c8.63,-3.45 16.82,-2.16 18.54,2.16 0.43,0.86 0.43,2.16 0,3.45 -1.29,4.74 -0.86,9.92 0.86,14.66l6.04 15.96 -21.13 8.19 -6.04 -15.96c-1.73,-4.74 -4.74,-9.06 -9.06,-11.64 -0.86,-0.43 -1.73,-1.29 -2.16,-2.59 -1.29,-4.74 4.31,-10.78 12.94,-14.23z"/>
    <path class="fil2" d="M232.45 348.89c8.63,3.45 14.23,9.49 12.51,13.8 -0.43,0.86 -1.29,1.72 -2.16,2.59 -4.31,2.59 -6.9,6.9 -9.06,11.64l-6.04 15.96 -21.13 -7.76 6.04 -15.96c1.72,-4.75 2.59,-9.92 0.86,-14.66 -0.43,-1.29 -0.43,-2.16 0,-3.45 2.16,-4.31 10.35,-5.61 18.98,-2.16z"/>
   </g>
   <rect class="fil3" x="226.41" y="457.57" width="100.05" height="53.04"/>
   <g>
    <path class="fil9" d="M339.4 363.12l-33.64 13.37 0 0.43c0.43,1.29 0.86,2.59 1.29,3.88 0,0 18.11,45.71 18.11,46.14 0,1.72 4.31,10.35 -7.33,10.35 0,0 -23.29,1.29 -32.78,2.16l-0 54.34c16.39,-1.72 62.53,-11.21 73.75,-52.18 1.73,-6.47 1.73,-12.94 0.86,-19.41 -0.43,-1.72 -18.11,-53.91 -18.11,-53.91 -0.86,-2.16 -1.29,-3.88 -2.16,-5.17z"/>
    <path class="fil9" d="M206.57 367.43l0 0c0,0 -18.11,52.18 -18.11,53.91 -0.86,6.47 -0.86,12.94 0.86,19.41 11.64,41.4 57.79,50.46 73.75,52.18l0 -54.34c-9.49,-0.43 -32.78,-2.16 -32.78,-2.16 -11.64,0 -7.33,-8.63 -7.33,-10.35 0,-0.43 16.39,-41.83 17.68,-45.71l-34.07 -12.94z"/>
   </g>
   <path class="fil5" d="M322.58 499.4l-91.86 0c-8.19,0 -15.09,6.9 -15.09,15.09l0 0 121.61 0 0 0c0.43,-8.19 -6.47,-15.09 -14.66,-15.09z"/>
   <polygon class="fil6" points="255.74,430.4 234.61,466.62 255.74,502.85 297.57,502.85 318.27,466.62 297.57,430.4 "/>
   <g>
   </g>
   <g>
   </g>
   <g>
   </g>
   <g>
   </g>
   <g>
   </g>
   <g>
   </g>
   <g>
   </g>
   <g>
   </g>
   <g>
   </g>
   <g>
   </g>
   <g>
   </g>
   <g>
   </g>
   <g>
   </g>
   <g>
   </g>
   <g>
   </g>
  </g>
 </g>
</svg>
