<?xml version="1.0" encoding="UTF-8"?>
<!DOCTYPE svg PUBLIC "-//W3C//DTD SVG 1.1//EN" "http://www.w3.org/Graphics/SVG/1.1/DTD/svg11.dtd">
<!-- Creator: CorelDRAW 2019 (64-Bit) -->
<svg xmlns="http://www.w3.org/2000/svg" xml:space="preserve" width="0.943118in" height="0.943118in" version="1.1" style="shape-rendering:geometricPrecision; text-rendering:geometricPrecision; image-rendering:optimizeQuality; fill-rule:evenodd; clip-rule:evenodd"
viewBox="0 0 538.72 538.72"
 xmlns:xlink="http://www.w3.org/1999/xlink">
 <defs>
  <style type="text/css">
   <![CDATA[
    .fil0 {fill:#1A1A1A}
    .fil2 {fill:#299A00}
    .fil4 {fill:#2B2D42}
    .fil3 {fill:#CCCCCC}
    .fil1 {fill:#FCEADE}
   ]]>
  </style>
 </defs>
 <g id="Layer_x0020_1">
  <metadata id="CorelCorpID_0Corel-Layer"/>
  <g id="support.svg">
   <path class="fil0" d="M242.42 89.79c0,34.74 56.23,62.85 125.7,62.85l0 -8.98c0,-54.55 -44.22,-98.77 -98.77,-98.77 -54.55,0 -98.77,44.22 -98.77,98.77 39.7,0 71.83,-24.1 71.83,-53.87z"/>
   <path class="fil1" d="M314.26 278.34l-3.92 0 0 0c-3.11,1.42 -6.3,2.68 -9.56,3.79 3.27,-1.1 6.46,-2.37 9.56,-3.79 13.69,-6.26 25.75,-15.47 35.22,-26.94 14.1,-17.08 22.58,-38.98 22.58,-62.85l0 8.98 13.47 0c17.35,0 31.43,-14.07 31.43,-31.43 0,-17.36 -14.07,-31.43 -31.43,-31.43l-13.47 0 0 8.98 0 8.98c-69.48,0 -125.7,-28.11 -125.7,-62.85 0,29.78 -32.13,53.87 -71.83,53.87l0 -8.98 -13.47 0c-17.35,0 -31.43,14.07 -31.43,31.43 0,17.35 14.07,31.43 31.43,31.43l13.47 0 0 -8.98c0,39.91 23.72,74.21 57.8,89.79 3.11,1.42 6.3,2.68 9.56,3.79 -3.27,-1.1 -6.46,-2.37 -9.56,-3.79l0 0 -3.92 0 44.89 89.79 44.89 -89.79zm-32.67 8.14c3.01,-0.38 5.99,-0.85 8.9,-1.49 -2.91,0.65 -5.89,1.11 -8.9,1.49zm9.72 -1.7c3.19,-0.74 6.33,-1.6 9.4,-2.63 -3.07,1.03 -6.21,1.9 -9.4,2.63zm-53.28 -2.63c3.06,1.03 6.2,1.9 9.4,2.63 -3.2,-0.74 -6.34,-1.6 -9.4,-2.63zm10.21 2.85c2.92,0.65 5.9,1.1 8.9,1.49 -3,-0.39 -5.98,-0.85 -8.9,-1.49zm21.13 2.32c3.59,0 7.13,-0.21 10.61,-0.58 -3.48,0.38 -7.02,0.58 -10.61,0.58 -3.59,0 -7.13,-0.21 -10.61,-0.58 3.48,0.38 7.02,0.58 10.61,0.58z"/>
   <path class="fil2" d="M107.74 404.04c0,-19.84 16.08,-35.91 35.92,-35.91l89.79 0 35.91 0 -44.89 -89.79 -35.91 0c-69.42,0 -125.7,56.28 -125.7,125.7l0 125.7 44.89 0 0 -125.7z"/>
   <path class="fil3" d="M395.06 368.13l-89.79 0 -35.91 0 -35.91 0 -89.79 0c-19.84,0 -35.92,16.08 -35.92,35.91l0 125.7 323.24 0 0 -125.7c0,-19.84 -16.08,-35.91 -35.92,-35.91zm-125.7 107.74c-14.88,0 -26.94,-12.06 -26.94,-26.93 0,-14.88 12.06,-26.94 26.94,-26.94 14.88,0 26.94,12.06 26.94,26.94 0,14.88 -12.06,26.93 -26.94,26.93z"/>
   <circle class="fil1" cx="269.36" cy="448.94" r="26.94"/>
   <path class="fil2" d="M305.28 368.13l89.79 0c19.84,0 35.92,16.08 35.92,35.91l0 125.7 44.89 0 0 -125.7c0,-69.42 -56.28,-125.7 -125.7,-125.7l-35.91 0 -44.89 89.79 35.91 0z"/>
   <g>
    <path class="fil4" d="M233.45 188.55c4.96,0 8.98,4.03 8.98,8.98l17.96 0c0,-14.85 -12.08,-26.94 -26.93,-26.94 -14.85,0 -26.94,12.09 -26.94,26.94l17.96 0c0,-4.95 4.02,-8.98 8.98,-8.98z"/>
    <path class="fil4" d="M305.28 188.55c4.96,0 8.98,4.03 8.98,8.98l17.96 0c0,-14.85 -12.09,-26.94 -26.94,-26.94 -14.85,0 -26.93,12.09 -26.93,26.94l17.96 0c0,-4.95 4.02,-8.98 8.98,-8.98z"/>
    <path class="fil4" d="M269.36 413.02c-19.81,0 -35.91,16.11 -35.91,35.91 0,19.81 16.11,35.91 35.91,35.91 19.81,0 35.91,-16.11 35.91,-35.91 0,-19.81 -16.11,-35.91 -35.91,-35.91zm0 53.87c-9.9,0 -17.96,-8.06 -17.96,-17.96 0,-9.9 8.05,-17.96 17.96,-17.96 9.9,0 17.96,8.05 17.96,17.96 0,9.9 -8.05,17.96 -17.96,17.96z"/>
    <path class="fil4" d="M484.85 404.04c0,-74.26 -60.42,-134.68 -134.68,-134.68l-9.78 0c3.2,-2.81 6.2,-5.81 9.05,-8.98l9.71 0c24.76,0 44.89,-20.14 44.89,-44.89l0 -15.82c10.82,-7.25 17.96,-19.59 17.96,-33.56 0,-14.02 -7.19,-26.38 -18.07,-33.63 -1.19,-73.24 -61.05,-132.48 -134.57,-132.48 -73.53,0 -133.38,59.24 -134.57,132.48 -10.87,7.25 -18.07,19.6 -18.07,33.63 0,22.28 18.13,40.4 40.4,40.4l6.11 0c4.2,24.88 16.92,46.85 35.1,62.85l-9.79 0c-74.26,0 -134.68,60.42 -134.68,134.68l0 116.72 -53.87 0 0 17.96 62.85 0 44.89 0 323.24 0 44.89 0 62.85 0 0 -17.96 -53.87 0 0 -116.72zm-215.49 -107.74c9.61,0 18.88,-1.38 27.75,-3.75l-27.75 55.51 -27.75 -55.51c8.87,2.37 18.15,3.75 27.75,3.75zm66.28 -8.98l-35.91 71.83 -15.84 0 35.91 -71.83 15.84 0zm50.44 -71.83c0,13.62 -10.2,24.79 -23.34,26.57 6.22,-10.82 10.59,-22.81 12.73,-35.55l6.11 0c1.53,0 3,-0.29 4.49,-0.46l0 9.44zm-4.49 -26.94l-4.49 0 0 -44.89 4.49 0c12.38,0 22.45,10.07 22.45,22.45 0,12.37 -10.07,22.45 -22.45,22.45zm-112.23 -170.6c61.47,0 111.88,47.79 116.29,108.16 -1.36,-0.14 -2.66,-0.41 -4.06,-0.41l-6.11 0c-8.58,-50.87 -52.84,-89.79 -106.12,-89.79 -53.28,0 -97.54,38.91 -106.12,89.79l-6.11 0c-1.39,0 -2.7,0.27 -4.06,0.41 4.42,-60.36 54.82,-108.16 116.29,-108.16zm89.78 125.48c-64.8,-2.28 -107.73,-28.78 -107.73,-53.65 0,-4.96 -4.01,-8.98 -8.98,-8.98 -4.96,0 -8.98,4.02 -8.98,8.98 0,22.44 -23.2,41.03 -53.35,44.33 4.79,-45.04 42.99,-80.24 89.27,-80.24 49.43,0 89.65,40.16 89.78,89.56zm-202.01 45.12c-12.38,0 -22.45,-10.07 -22.45,-22.45 0,-12.37 10.07,-22.45 22.45,-22.45l4.49 0 0 44.89 -4.49 0zm22.45 0l0 -36.42c28.04,-2.43 51.83,-15.95 63.71,-34.89 18.78,24.89 62.68,42.4 115.86,44.19l0 27.11c0,20.23 -6.81,38.84 -18.13,53.87l-71.66 0 0 17.96 53.64 0c-5.15,3.86 -10.71,7.18 -16.64,9.88 -23.56,10.7 -50.45,10.7 -74.02,0 -31.07,-14.13 -52.77,-45.4 -52.77,-81.71zm75.26 170.6l-15.84 0 -35.91 -71.83 15.84 0 35.91 71.83zm-183.01 44.89c0,-62.54 49.47,-113.59 111.31,-116.44l35.78 71.55 -75.26 0c-24.76,0 -44.89,20.14 -44.89,44.89l0 116.72 -26.94 0 0 -116.72zm44.89 116.72l0 -116.72c0,-14.85 12.09,-26.94 26.94,-26.94l89.79 0 35.91 0 35.91 0 89.79 0c14.85,0 26.94,12.09 26.94,26.94l0 116.72 -305.28 0zm323.23 0l0 -116.72c0,-24.75 -20.14,-44.89 -44.89,-44.89l-75.26 0 35.78 -71.55c61.84,2.85 111.31,53.91 111.31,116.44l0 116.72 -26.94 0z"/>
    <rect class="fil4" x="386.09" y="439.96" width="17.96" height="62.85"/>
    <rect class="fil4" x="386.09" y="404.04" width="17.96" height="17.96"/>
    <rect class="fil4" x="466.89" y="80.81" width="17.96" height="17.96"/>
    <rect class="fil4" x="466.89" y="116.72" width="17.96" height="17.96"/>
    <rect class="fil4" x="466.89" y="152.64" width="17.96" height="17.96"/>
    <rect class="fil4" x="53.87" y="188.55" width="17.96" height="17.96"/>
    <rect class="fil4" x="53.87" y="224.47" width="17.96" height="17.96"/>
    <rect class="fil4" x="53.87" y="260.38" width="17.96" height="17.96"/>
   </g>
   <g>
   </g>
   <g>
   </g>
   <g>
   </g>
   <g>
   </g>
   <g>
   </g>
   <g>
   </g>
   <g>
   </g>
   <g>
   </g>
   <g>
   </g>
   <g>
   </g>
   <g>
   </g>
   <g>
   </g>
   <g>
   </g>
   <g>
   </g>
   <g>
   </g>
  </g>
 </g>
</svg>
