<?xml version="1.0" encoding="UTF-8"?>
<!DOCTYPE svg PUBLIC "-//W3C//DTD SVG 1.1//EN" "http://www.w3.org/Graphics/SVG/1.1/DTD/svg11.dtd">
<!-- Creator: CorelDRAW 2019 (64-Bit) -->
<svg xmlns="http://www.w3.org/2000/svg" xml:space="preserve" width="1.37199in" height="0.636169in" version="1.1" style="shape-rendering:geometricPrecision; text-rendering:geometricPrecision; image-rendering:optimizeQuality; fill-rule:evenodd; clip-rule:evenodd"
viewBox="0 0 248.75 115.34"
 xmlns:xlink="http://www.w3.org/1999/xlink">
 <defs>
  <style type="text/css">
   <![CDATA[
    .fil0 {fill:#264600}
   ]]>
  </style>
 </defs>
 <g id="Layer_x0020_1">
  <metadata id="CorelCorpID_0Corel-Layer"/>
  <path class="fil0" d="M230.75 95.27l0 -10.22 4.12 -5.51 0.27 -2.58 -18.32 0 0 -10.29 4.09 -5.51 0.32 -2.61 -22.45 0 0 -10.26 4.08 -5.5 0.32 -2.58 -20.84 0 0 -10.26 4.07 -5.48 0.32 -2.61 -23.07 0 0 -10.27 4.11 -5.5 0.29 -2.58 -15.5 0 0 -3.49 -56.52 0 0 3.48 -15.45 0 0.29 2.58 4.12 5.5 0 10.27 -23.05 0 0.31 2.61 4.07 5.48 0 10.26 -20.84 0 0.31 2.58 4.09 5.51 0 10.26 -22.4 0 0.29 2.62 4.12 5.5 0 10.26 -18.32 0 0.31 2.58 4.09 5.5 0 10.23 -18.01 0 0.3 2.6 4.13 5.53 0 11.99 239.93 0 0 -11.98 4.09 -5.53 0.3 -2.58 -18.01 0.01 0 0zm-18.67 -23.16l0 4.95 -38.85 0 0 -4.95 38.85 0zm-16.41 -18.33l0 4.97 -25.62 0 0 -4.97 25.62 0zm-30.67 -18.67l13.58 0 0 4.99 -13.58 0 0 -4.99zm-81.55 60.3l-62.25 0 0 -4.95 62.23 0 0.02 4.95 0 0zm0 -18.33l-47.74 0 0 -4.98 47.74 0c0,0 0,4.98 0,4.98zm3.79 -18.34l-34.75 0 0 -4.97 34.75 0c0,0 0,4.97 0,4.97zm1.91 -18.63l-21.19 0 0 -4.99 21.17 0 0.01 4.99 0 0zm11.68 62.33l0 10.73 -11.37 0 0.64 -9.78 7.59 -93.58 7.89 0.31 -4.74 92.32zm61.34 10.72l0 -10.73 -13.64 -92.31 7.92 -0.31 16.42 93.58 0.69 9.77c0,0.01 -11.39,0.01 -11.39,0zm66.68 -17.74l-50.87 0 0 -4.95 50.87 0 0 4.95z"/>
 </g>
</svg>
