<?xml version="1.0" encoding="UTF-8"?>
<!DOCTYPE svg PUBLIC "-//W3C//DTD SVG 1.1//EN" "http://www.w3.org/Graphics/SVG/1.1/DTD/svg11.dtd">
<!-- Creator: CorelDRAW 2019 (64-Bit) -->
<svg xmlns="http://www.w3.org/2000/svg" xml:space="preserve" width="1.20656in" height="1.20656in" version="1.1" style="shape-rendering:geometricPrecision; text-rendering:geometricPrecision; image-rendering:optimizeQuality; fill-rule:evenodd; clip-rule:evenodd"
viewBox="0 0 199.67 199.67"
 xmlns:xlink="http://www.w3.org/1999/xlink">
 <defs>
  <style type="text/css">
   <![CDATA[
    .fil3 {fill:#1A1A1A}
    .fil9 {fill:#264600}
    .fil2 {fill:#299A00}
    .fil4 {fill:#333333}
    .fil0 {fill:#344A5E}
    .fil8 {fill:#415A6B}
    .fil7 {fill:#F3705A}
    .fil1 {fill:#F3F3F3}
    .fil5 {fill:#F7B64C}
    .fil6 {fill:#FFD15C}
   ]]>
  </style>
 </defs>
 <g id="Layer_x0020_1">
  <metadata id="CorelCorpID_0Corel-Layer"/>
  <g id="conference.svg">
   <g>
    <ellipse class="fil0" cx="97.75" cy="17.89" rx="15.39" ry="17.89"/>
    <ellipse class="fil0" cx="108.98" cy="17.47" rx="7.49" ry="14.14"/>
   </g>
   <g>
    <polygon class="fil1" points="109.82,43.26 99.83,50.75 108.15,60.32 112.31,49.08 "/>
    <polygon class="fil1" points="89.85,43.26 87.35,49.08 91.51,60.32 99.83,50.75 "/>
   </g>
   <polygon class="fil2" points="103.58,61.56 107.32,57.82 99.83,50.75 92.35,57.82 96.09,61.56 "/>
   <polygon class="fil2" points="106.07,76.95 103.58,61.56 96.09,61.56 93.59,76.95 "/>
   <path class="fil3" d="M138.1 76.95l-1.25 -12.48c-0.42,-4.99 -4.16,-9.15 -8.74,-10.82l-11.65 -3.33 -8.32 26.62 29.95 0 0 0z"/>
   <polygon class="fil4" points="112.73,76.95 121.46,59.07 116.47,55.74 120.63,54.49 110.23,44.51 104.41,76.95 "/>
   <path class="fil3" d="M91.93 76.95l-8.32 -26.62 -11.65 3.33c-4.99,1.25 -8.32,5.82 -8.74,10.82l-1.25 12.48 29.95 0z"/>
   <polygon class="fil4" points="86.94,76.95 95.26,76.95 89.43,44.51 79.03,54.49 83.19,55.74 78.2,59.07 "/>
   <polygon class="fil5" points="109.82,36.19 99.83,28.7 89.85,36.19 89.85,43.26 99.83,50.75 109.82,43.26 "/>
   <g>
    <path class="fil6" d="M91.93 19.13c-2.5,0 -4.99,-0.42 -7.07,-0.83 -0.83,2.08 -1.25,4.58 -1.25,7.49 0,10.82 7.07,19.13 15.81,19.13 8.74,0 15.81,-8.74 15.81,-19.13 0,-5.41 -2.08,-10.4 -4.99,-13.73 -4.16,4.16 -10.4,7.07 -18.3,7.07z"/>
    <ellipse class="fil6" transform="matrix(0.0259182 -0.143615 0.143615 0.0259182 114.817 26.2174)" rx="34.2" ry="22.8"/>
    <ellipse class="fil6" transform="matrix(0.0259182 0.143615 -0.143615 0.0259182 84.2919 26.3409)" rx="34.2" ry="22.8"/>
   </g>
   <rect class="fil7" x="57.4" y="97.75" width="84.44" height="76.12"/>
   <polygon class="fil6" points="150.17,97.75 49.5,97.75 43.26,76.95 156.4,76.95 "/>
   <rect class="fil5" x="24.96" y="155.99" width="17.05" height="17.47"/>
   <path class="fil8" d="M66.56 199.67l-2.5 -12.06c-0.83,-3.74 -3.33,-7.07 -6.66,-8.74l-13.73 -6.66 -10.4 -1.25 -9.98 1.25 -13.73 6.66c-3.33,1.66 -5.82,4.99 -6.66,8.74l-2.91 12.06 66.56 0z"/>
   <g>
    <path class="fil6" d="M49.5 150.58c-0.42,2.5 -2.08,4.16 -3.74,4.16 -1.66,-0.42 -2.08,-2.5 -1.66,-4.99 0.42,-2.5 2.08,-4.58 3.74,-4.58 1.66,0.42 2.08,2.5 1.66,5.41z"/>
    <path class="fil6" d="M17.05 150.58c0.42,2.5 2.08,4.16 3.74,4.16 1.66,-0.42 2.08,-2.5 1.66,-4.99 -0.42,-2.5 -2.08,-4.58 -3.74,-4.58 -1.66,0.42 -2.08,2.5 -1.66,5.41z"/>
   </g>
   <path class="fil8" d="M44.51 157.65c-4.58,7.9 -11.23,7.07 -11.23,7.07 0,0 -6.66,0.83 -11.23,-7.07 -4.58,-7.9 -8.32,-29.12 11.23,-29.95 19.55,0.83 15.39,22.05 11.23,29.95z"/>
   <path class="fil2" d="M42.43 170.55l0 -2.91c0,-2.08 -4.16,-3.33 -9.15,-3.33 -4.99,0 -9.15,1.66 -9.15,3.33l0 2.91 18.3 0z"/>
   <path class="fil0" d="M47 173.88c0,0 -10.4,-2.5 -13.73,-2.5 -3.33,0 -13.73,2.5 -13.73,2.5 2.08,-2.91 4.99,-5.41 8.32,-6.24 1.66,-0.42 3.74,-0.83 5.41,-0.83 1.66,0 3.33,0.42 5.41,0.83 3.33,0.83 6.24,3.33 8.32,6.24z"/>
   <rect class="fil5" x="91.51" y="155.99" width="17.05" height="17.47"/>
   <path class="fil8" d="M133.11 199.67l-2.5 -12.06c-0.83,-3.74 -3.33,-7.07 -6.66,-8.74l-13.73 -6.66 -10.4 -1.25 -9.98 1.25 -13.73 6.66c-3.33,1.66 -5.82,4.99 -6.66,8.74l-2.91 12.06 66.56 0z"/>
   <g>
    <path class="fil6" d="M116.06 150.58c-0.42,2.5 -2.08,4.16 -3.74,4.16 -1.66,-0.42 -2.08,-2.5 -1.66,-4.99 0.42,-2.5 2.08,-4.58 3.74,-4.58 1.66,0.42 2.08,2.5 1.66,5.41z"/>
    <path class="fil6" d="M83.61 150.58c0.42,2.5 2.08,4.16 3.74,4.16 1.66,-0.42 2.08,-2.5 1.66,-4.99 -0.42,-2.5 -2.08,-4.58 -3.74,-4.58 -1.66,0.42 -2.08,2.5 -1.66,5.41z"/>
   </g>
   <path class="fil8" d="M111.06 157.65c-4.58,7.9 -11.23,7.07 -11.23,7.07 0,0 -6.66,0.83 -11.23,-7.07 -4.58,-7.9 -8.32,-29.12 11.23,-29.95 19.55,0.83 15.39,22.05 11.23,29.95z"/>
   <path class="fil9" d="M108.98 170.55l0 -2.91c0,-2.08 -4.16,-3.33 -9.15,-3.33 -4.99,0 -9.15,1.66 -9.15,3.33l0 2.91 18.3 0z"/>
   <path class="fil0" d="M113.56 173.88c0,0 -10.4,-2.5 -13.73,-2.5 -3.33,0 -13.73,2.5 -13.73,2.5 2.08,-2.91 4.99,-5.41 8.32,-6.24 1.66,-0.42 3.74,-0.83 5.41,-0.83 1.66,0 3.33,0.42 5.41,0.83 3.33,0.83 6.24,3.33 8.32,6.24z"/>
   <rect class="fil5" x="158.07" y="155.99" width="17.05" height="17.47"/>
   <path class="fil8" d="M199.67 199.67l-2.5 -12.06c-0.83,-3.74 -3.33,-7.07 -6.66,-8.74l-13.73 -6.66 -10.4 -1.25 -9.98 1.25 -13.73 6.66c-3.33,1.66 -5.82,4.99 -6.66,8.74l-2.91 12.06 66.56 0z"/>
   <g>
    <path class="fil6" d="M182.61 150.58c-0.42,2.5 -2.08,4.16 -3.74,4.16 -1.66,-0.42 -2.08,-2.5 -1.66,-4.99 0.42,-2.5 2.08,-4.58 3.74,-4.58 1.66,0.42 2.08,2.5 1.66,5.41z"/>
    <path class="fil6" d="M150.17 150.58c0.42,2.5 2.08,4.16 3.74,4.16 1.66,-0.42 2.08,-2.5 1.66,-4.99 -0.42,-2.5 -2.08,-4.58 -3.74,-4.58 -1.66,0.42 -2.08,2.5 -1.66,5.41z"/>
   </g>
   <path class="fil8" d="M177.62 157.65c-4.58,7.9 -11.23,7.07 -11.23,7.07 0,0 -6.66,0.83 -11.23,-7.07 -4.58,-7.9 -8.32,-29.12 11.23,-29.95 19.55,0.83 15.39,22.05 11.23,29.95z"/>
   <path class="fil2" d="M175.54 170.55l0 -2.91c0,-2.08 -4.16,-3.33 -9.15,-3.33 -4.99,0 -9.15,1.66 -9.15,3.33l0 2.91 18.3 0z"/>
   <path class="fil0" d="M180.12 173.88c0,0 -10.4,-2.5 -13.73,-2.5 -3.33,0 -13.73,2.5 -13.73,2.5 2.08,-2.91 4.99,-5.41 8.32,-6.24 1.66,-0.42 3.74,-0.83 5.41,-0.83 1.66,0 3.33,0.42 5.41,0.83 3.33,0.83 6.24,3.33 8.32,6.24z"/>
   <g>
   </g>
   <g>
   </g>
   <g>
   </g>
   <g>
   </g>
   <g>
   </g>
   <g>
   </g>
   <g>
   </g>
   <g>
   </g>
   <g>
   </g>
   <g>
   </g>
   <g>
   </g>
   <g>
   </g>
   <g>
   </g>
   <g>
   </g>
   <g>
   </g>
  </g>
 </g>
</svg>
