<?xml version="1.0" encoding="UTF-8"?>
<!DOCTYPE svg PUBLIC "-//W3C//DTD SVG 1.1//EN" "http://www.w3.org/Graphics/SVG/1.1/DTD/svg11.dtd">
<!-- Creator: CorelDRAW 2019 (64-Bit) -->
<svg xmlns="http://www.w3.org/2000/svg" xml:space="preserve" width="1.32381in" height="1.32381in" version="1.1" style="shape-rendering:geometricPrecision; text-rendering:geometricPrecision; image-rendering:optimizeQuality; fill-rule:evenodd; clip-rule:evenodd"
viewBox="0 0 3759.85 3759.86"
 xmlns:xlink="http://www.w3.org/1999/xlink">
 <defs>
  <style type="text/css">
   <![CDATA[
    .fil6 {fill:black}
    .fil2 {fill:#299A00}
    .fil1 {fill:#48B400}
    .fil4 {fill:#BEBEBE}
    .fil5 {fill:#F5B955}
    .fil3 {fill:#FFB487}
    .fil0 {fill:#FFCDAC}
   ]]>
  </style>
 </defs>
 <g id="Layer_x0020_1">
  <metadata id="CorelCorpID_0Corel-Layer"/>
  <g id="social-care.svg">
   <g>
    <g>
     <path class="fil0" d="M777.74 2855.74l-239.72 -255.11c-76.95,-81.91 -119.8,-190.07 -119.8,-302.47l0 -903.35c0,-80.82 -56.14,-150.79 -135.04,-168.3l0 0c-107.66,-23.9 -209.75,58.02 -209.75,168.3l0 1138.62c0,133.11 41.38,262.92 118.44,371.45l130.96 184.48 313.29 441.33 110.55 155.73 835.23 0 -120.32 -573.45c-54.24,-258.53 -207.25,-485.68 -426.47,-633.08l-256.88 -172.71c-76.54,-51.47 -179.36,-38.34 -240.51,30.69l0 0c-68.02,76.77 -66.22,192.73 4.18,267.33 140.66,149.05 349.95,371.92 349.95,371.92l-114.12 -121.38zm0 0l0 0 0 0z"/>
    </g>
    <g>
     <path class="fil0" d="M2982.09 2855.74l239.72 -255.11c76.96,-81.91 119.8,-190.07 119.8,-302.47l0 -903.35c0,-80.82 56.14,-150.79 135.04,-168.3l0 0c107.66,-23.9 209.75,58.02 209.75,168.3l0 1138.62c0,133.11 -41.38,262.92 -118.44,371.45l-130.96 184.48 -313.29 441.33 -110.55 155.73 -835.23 0 120.32 -573.45c54.24,-258.53 207.27,-485.68 426.48,-633.08l256.88 -172.71c76.54,-51.47 179.34,-38.34 240.5,30.69l0 0c68.02,76.77 66.22,192.73 -4.17,267.33 -140.67,149.05 -349.96,371.92 -349.96,371.92l114.12 -121.38zm0 0l0 0 0 0z"/>
    </g>
   </g>
   <g>
    <path class="fil1" d="M2057.17 1554.47c35.05,-36.41 80.4,-63.29 132.28,-75.72l187.51 -44.93 0.08 0.12 -0.08 -0.12 0 -114.48 228.98 0 0 114.85 0 0 187.03 44.67c122.3,29.22 208.57,138.53 208.57,264.26l0 137.14 -414.56 0.01 -529.8 -325.8z"/>
    <path class="fil1" d="M1703.6 1554.09c-35.05,-36.4 -80.41,-63.28 -132.28,-75.71l-187.51 -44.94 -0.09 0.13 0.09 -0.13 0 -114.47 -228.99 0 0 114.84 0 0 -187.02 44.68c-122.3,29.21 -208.57,138.52 -208.57,264.26l0 137.14 414.56 0 529.8 -325.8z"/>
   </g>
   <g>
    <path class="fil2" d="M1720.66 1549.98l-261.18 62.58c-170.21,40.79 -290.25,192.99 -290.25,368.01l0 264.07 1421.36 0 0 -263.85c0,-175.14 -120.17,-327.39 -290.5,-368.08l-260.5 -62.23 -318.93 -0.51zm0 0l0 0 0 0z"/>
   </g>
   <g>
    <path class="fil3" d="M2039.59 1390.53l0 159.96 -159.39 362.48 -159.54 -362.98 0 -159.45 318.93 0zm0 0l0 0 0 0z"/>
   </g>
   <g>
    <path class="fil0" d="M2236.33 841.19l0 220.86c0,196.33 -159.16,355.49 -355.49,355.49l0 0 0 0c-196.33,0 -355.5,-159.16 -355.5,-355.49l0 -220.86 710.99 0zm0 0l0 0 0 0z"/>
   </g>
   <path class="fil4" d="M1880.84 469.98l0 0c-196.33,0 -355.5,159.16 -355.5,355.49l0 85.59 173.82 0c115.54,0 225.16,-51.16 299.36,-139.72l0 0 237.81 139.72 0 -85.59c0,-196.33 -159.15,-355.49 -355.49,-355.49z"/>
   <g>
    <path class="fil5" d="M1524.69 974.73l0 -61.44c0,-140.96 -114.27,-255.24 -255.22,-255.24l0 0c-140.96,0 -255.24,114.28 -255.24,255.24l0 61.44 175.93 0c110.17,0 218.29,-29.91 312.79,-86.55l0 0 21.74 86.55zm0 0l0 0 0 0z"/>
   </g>
   <g>
    <path class="fil0" d="M1524.69 924.57l0 158.57c0,140.95 -114.27,255.22 -255.22,255.22l0 0 0 0c-140.96,0 -255.24,-114.28 -255.24,-255.22l0 -158.57 510.46 0zm0 0l0 0 0 0z"/>
   </g>
   <g>
    <path class="fil5" d="M2236.08 975.1l0 -61.44c0,-140.96 114.27,-255.22 255.22,-255.22l0 0c140.96,0 255.24,114.27 255.24,255.22l0 61.44 -175.93 0c-110.17,0 -218.29,-29.91 -312.79,-86.54l0 0 -21.74 86.54zm0 0l0 0 0 0z"/>
   </g>
   <g>
    <path class="fil0" d="M2236.08 924.95l0 158.56c0,140.96 114.27,255.22 255.22,255.22l0 0 0 0c140.96,0 255.24,-114.27 255.24,-255.22l0 -158.56 -510.46 0zm0 0l0 0 0 0z"/>
   </g>
   <path class="fil6" d="M696 3488.17c-23.47,-33.08 -69.32,-40.85 -102.39,-17.38 -33.06,23.48 -40.85,69.32 -17.37,102.39l110.55 155.73c14.32,20.17 36.96,30.94 59.95,30.94 14.7,0 29.54,-4.41 42.45,-13.56 33.06,-23.48 40.85,-69.32 17.37,-102.39l-110.55 -155.73z"/>
   <path class="fil6" d="M1533.47 3097.89c-58.5,-278.84 -220.94,-519.95 -457.38,-678.94l-256.88 -172.74c-103.01,-69.25 -241.46,-54.35 -327.55,33.43l0 -884.85c0,-116.15 -79.19,-214.84 -192.57,-239.99 -73.17,-16.26 -148.65,1.35 -207.11,48.25 -58.46,46.91 -91.98,116.79 -91.98,191.73l0 1138.62c0,149.18 45.64,292.31 132,413.96l130.95 184.48c14.32,20.17 36.96,30.93 59.95,30.93 14.7,0 29.54,-4.41 42.45,-13.56 33.06,-23.48 40.86,-69.32 17.37,-102.39l-130.95 -184.48c-68.62,-96.66 -104.89,-210.4 -104.89,-328.93l0 -1138.61c0,-30.17 13.5,-58.3 37.02,-77.19 23.52,-18.89 53.9,-25.96 83.37,-19.42 45.64,10.12 77.52,49.85 77.52,96.61l0 903.35c0,127.89 46.99,249.72 132.34,344.51 3.66,4.38 7.41,8.72 11.39,12.93 48.76,51.68 106.1,112.57 160.1,169.96l75.6 80.46c0.25,0.26 0.51,0.48 0.76,0.73 64.68,68.79 112.37,119.59 113.37,120.64 27.74,29.55 74.24,31.03 103.79,3.27 29.56,-27.76 31.03,-74.24 3.25,-103.8 -1.33,-1.43 -87.3,-92.97 -185.46,-197.3l-168.38 -179.21c-0.42,-0.45 -0.82,-0.93 -1.24,-1.39 -39.48,-47.21 -38.99,-115.68 2.39,-162.39 36.61,-41.32 98.76,-49.24 144.56,-18.46l256.87 172.74c204.5,137.5 344.99,346.04 395.59,587.21l120.32 573.45c7.27,34.61 37.79,58.37 71.8,58.37 5,0 10.07,-0.51 15.15,-1.58 39.7,-8.33 65.11,-47.27 56.79,-86.96l-120.32 -573.44z"/>
   <path class="fil6" d="M543.59 3273.48c-23.57,-33.02 -69.43,-40.69 -102.44,-17.13 -33.01,23.56 -40.67,69.42 -17.12,102.43l0.47 0.66c14.34,20.09 36.91,30.79 59.84,30.79 14.76,0 29.65,-4.44 42.59,-13.66 33.01,-23.56 40.67,-69.42 17.12,-102.43l-0.47 -0.66z"/>
   <path class="fil6" d="M3667.86 1203.07c-58.45,-46.91 -133.96,-64.49 -207.1,-48.25 -113.38,25.15 -192.58,123.84 -192.58,239.98l0 884.86c-86.08,-87.79 -224.55,-102.68 -327.55,-33.43l-256.88 172.72c-236.44,158.97 -398.88,400.1 -457.38,678.94l-120.32 573.45c-8.32,39.7 17.1,78.62 56.79,86.95 5.08,1.06 10.16,1.58 15.15,1.58 34,0 64.53,-23.76 71.79,-58.37l120.32 -573.45c50.61,-241.17 191.09,-449.72 395.59,-587.21l256.88 -172.72c45.79,-30.81 107.95,-22.87 144.57,18.44 41.33,46.66 41.88,115.02 2.54,162.24 -0.46,0.51 -0.92,1.04 -1.39,1.55 0,0 -352.52,375.1 -353.85,376.51 -27.76,29.56 -26.3,76.02 3.25,103.79 29.56,27.78 76.04,26.31 103.8,-3.25 1,-1.06 301.07,-320.11 349.83,-371.78 3.97,-4.2 7.74,-8.55 11.39,-12.94 85.34,-94.79 132.34,-216.62 132.34,-344.5l0 -903.36c0,-46.76 31.88,-86.49 77.52,-96.61 29.46,-6.54 59.84,0.55 83.37,19.42 23.54,18.87 37.03,47.01 37.03,77.19l0 1138.61c0,118.54 -36.27,232.29 -104.89,328.95l-554.81 781.54c-23.48,33.08 -15.7,78.92 17.37,102.39 12.9,9.16 27.74,13.56 42.45,13.56 22.98,0 45.62,-10.77 59.95,-30.93l554.81 -781.54c86.35,-121.65 131.99,-264.8 131.99,-413.96l0 -1138.62c-0.02,-74.95 -33.53,-144.84 -91.99,-191.73z"/>
   <path class="fil6" d="M2590.59 2318.08c40.55,0 73.43,-32.87 73.43,-73.43l0 -263.85c0,-9.1 -0.37,-18.11 -0.89,-27.09l338.41 0c40.55,0 73.43,-32.89 73.43,-73.44l0 -137.14c0,-160.38 -108.94,-298.42 -264.94,-335.68l-130.65 -31.22 0 -23.43c84.9,-59.48 140.59,-157.98 140.59,-269.29l0 -169.84c0,-181.23 -147.43,-328.67 -328.67,-328.67 -81.33,0 -155.78,29.75 -213.24,78.87 -63.96,-156.63 -217.88,-267.32 -397.22,-267.32 -179.58,0 -333.64,110.98 -397.46,267.92 -57.54,-49.47 -132.27,-79.47 -213.93,-79.47 -181.22,0 -328.67,147.43 -328.67,328.65l0 11.29 0 158.56c0,111.31 55.69,209.81 140.59,269.29l0 23.43 -130.65 31.21c-155.99,37.27 -264.93,175.31 -264.93,335.69l0 137.14c0,40.56 32.89,73.43 73.43,73.43l337.44 0c-0.51,8.91 -0.88,17.86 -0.88,26.89l0 264.05c0,40.57 32.89,73.44 73.44,73.44l441.41 0c40.56,0 73.43,-32.87 73.43,-73.43 0,-40.56 -32.89,-73.44 -73.43,-73.44l-75.87 0 0 -151.75c0,-40.57 -32.89,-73.44 -73.44,-73.44 -40.55,0 -73.43,32.89 -73.43,73.44l0 151.76 -145.23 0 0 -190.62c0,-141.64 96.2,-263.6 233.91,-296.61l201.53 -48.28 134.86 306.82c11.72,26.67 38.1,43.89 67.21,43.89l0 0c29.13,0 55.51,-17.21 67.22,-43.88l134.72 -306.37 200.88 47.99c137.86,32.93 234.14,154.91 234.14,296.65l0 190.4 -145.23 0 0 -151.76c0,-40.57 -32.89,-73.44 -73.44,-73.44 -40.55,0 -73.43,32.89 -73.43,73.44l0 151.76 -83.23 0c-40.55,0 -73.43,32.89 -73.43,73.44 0,40.56 32.89,73.43 73.43,73.43l448.77 0zm-943.37 -890.92c-18.87,-8.32 -38.53,-14.97 -58.8,-19.83l-131.18 -31.44 0 -22.88c23.68,-16.55 45.08,-36.11 63.65,-58.15 32.8,50.52 75.89,93.73 126.34,126.62l0 5.67zm-559.55 -343.66l0 -34.98 102.49 0c89.9,0 178.61,-17.82 261.09,-52l0 86.96c0,100.24 -81.55,181.79 -181.79,181.79 -100.26,0 -181.79,-81.54 -181.79,-181.78zm511.11 -21.46l0 -77.57 100.38 0.01c116.46,0 227.18,-43.31 312.04,-120.55l151.43 88.97 0 119.88c-5.67,150.56 -129.85,271.31 -281.79,271.31 -155.53,0.01 -282.06,-126.52 -282.06,-282.06zm514.24 365.35l0 -4.98c50.85,-32.89 94.33,-76.19 127.38,-126.94 18.44,21.79 39.66,41.14 63.11,57.53l0 22.88 -131.18 31.44c-20.45,4.9 -40.29,11.64 -59.31,20.06zm196.49 -343.9l0 -10.72c0.09,-3.58 0.27,-7.13 0.27,-10.73l0 -65.4c82.41,34.1 171.01,51.89 260.83,51.89l102.49 0 0 34.98c0,100.23 -81.55,181.79 -181.79,181.79 -100.24,0 -181.79,-81.56 -181.79,-181.8zm181.79 -351.64c96.21,0 175.2,75.13 181.39,169.81l-102.09 0c-85.83,0 -170.3,-20.66 -246.22,-60.01 27.93,-64.53 92.25,-109.79 166.92,-109.79zm-892.52 93.61c0,-155.53 126.53,-282.06 282.06,-282.06 140.29,0 256.97,102.94 278.52,237.24l-123.63 -72.64c-30.93,-18.17 -70.45,-11.35 -93.49,16.16 -60.42,72.1 -149.01,113.45 -243.08,113.45l-100.38 0 0 -12.15 0 0zm-329.31 -93.61c74.67,0 138.98,45.26 166.91,109.78 -75.94,39.35 -160.39,60.01 -246.22,60.01l-102.09 0c6.19,-94.66 85.19,-169.8 181.4,-169.8zm172.9 809.3c-144.48,34.62 -258.02,135.34 -312.06,265.67l-297.65 0 0 -63.71c0,-92.13 62.58,-171.43 152.2,-192.84l187.03 -44.67c33.05,-7.89 56.38,-37.44 56.38,-71.43l0 -24.68c13.51,1.69 27.24,2.67 41.2,2.67 13.85,0 27.48,-0.96 40.9,-2.64l0 20.95c-0.06,1.08 -0.08,2.18 -0.08,3.28 -0.02,24.1 11.83,47.7 33.58,61.77 8.2,5.31 17.05,8.76 26.09,10.49l109.55 26.24 -37.13 8.9zm437.83 189.34l-86.12 -195.95 0 -52.4c28.02,5.78 57.04,8.82 86.75,8.82 29.21,0 57.73,-2.95 85.32,-8.54l0 52.62 -85.94 195.45zm436.94 -189.21l-36.87 -8.8 110.13 -26.39c9.16,-1.71 18.16,-5.2 26.47,-10.58 21.72,-14.04 33.52,-37.65 33.52,-61.75 0,-0.57 0,-1.15 -0.02,-1.72l0 -22.53c13.42,1.67 27.05,2.63 40.9,2.63 13.97,0 27.7,-0.97 41.2,-2.67l0 24.69c0,33.99 23.33,63.53 56.38,71.43l187.03 44.67c89.61,21.41 152.2,100.71 152.2,192.84l0 63.71 -298.65 0c-54.1,-130.32 -167.72,-230.99 -312.28,-265.53z"/>
   <path class="fil6" d="M1879.91 2171.23c-19.39,0 -38.25,7.78 -51.92,21.45 -13.73,13.73 -21.51,32.61 -21.51,52 0,19.31 7.78,38.19 21.51,51.92 13.66,13.65 32.53,21.51 51.92,21.51 19.31,0 38.19,-7.86 51.92,-21.51 13.65,-13.73 21.52,-32.61 21.52,-51.92 0,-19.39 -7.86,-38.26 -21.52,-52 -13.73,-13.66 -32.61,-21.45 -51.92,-21.45z"/>
   <path class="fil1" d="M1879.87 256.74c40.56,0 73.43,-32.87 73.43,-73.43l0.01 -109.88c0,-40.56 -32.89,-73.43 -73.44,-73.43 -40.55,0 -73.43,32.87 -73.43,73.43l0 109.88c0,40.56 32.89,73.43 73.43,73.43z"/>
   <path class="fil1" d="M1505.57 343.43c14.34,14.34 33.12,21.49 51.89,21.49 18.81,0 37.6,-7.18 51.95,-21.54 28.66,-28.69 28.64,-75.19 -0.06,-103.85l-77.03 -76.96c-28.69,-28.67 -75.19,-28.65 -103.86,0.04 -28.66,28.69 -28.64,75.2 0.06,103.86l77.04 76.95z"/>
   <path class="fil1" d="M2201.17 366.36c18.81,0 37.6,-7.19 51.94,-21.55l76.44 -76.51c28.66,-28.69 28.65,-75.19 -0.04,-103.86 -28.69,-28.66 -75.2,-28.64 -103.86,0.06l-76.44 76.52c-28.66,28.68 -28.64,75.19 0.06,103.85 14.34,14.32 33.12,21.49 51.91,21.49z"/>
   <g>
   </g>
   <g>
   </g>
   <g>
   </g>
   <g>
   </g>
   <g>
   </g>
   <g>
   </g>
   <g>
   </g>
   <g>
   </g>
   <g>
   </g>
   <g>
   </g>
   <g>
   </g>
   <g>
   </g>
   <g>
   </g>
   <g>
   </g>
   <g>
   </g>
  </g>
 </g>
</svg>
