<?xml version="1.0" encoding="UTF-8"?>
<!DOCTYPE svg PUBLIC "-//W3C//DTD SVG 1.1//EN" "http://www.w3.org/Graphics/SVG/1.1/DTD/svg11.dtd">
<!-- Creator: CorelDRAW 2019 (64-Bit) -->
<svg xmlns="http://www.w3.org/2000/svg" xml:space="preserve" width="1.54352in" height="1.45492in" version="1.1" style="shape-rendering:geometricPrecision; text-rendering:geometricPrecision; image-rendering:optimizeQuality; fill-rule:evenodd; clip-rule:evenodd"
viewBox="0 0 672.98 634.35"
 xmlns:xlink="http://www.w3.org/1999/xlink">
 <defs>
  <style type="text/css">
   <![CDATA[
    .fil4 {fill:black}
    .fil19 {fill:lime}
    .fil3 {fill:#1A1A1A}
    .fil10 {fill:#264600}
    .fil15 {fill:#299A00}
    .fil11 {fill:#333333}
    .fil6 {fill:#344A5E}
    .fil13 {fill:#402025}
    .fil14 {fill:#415A6B}
    .fil16 {fill:#663333}
    .fil1 {fill:#66C6B9}
    .fil17 {fill:#854E43}
    .fil12 {fill:#9C684E}
    .fil0 {fill:#ADB3BA}
    .fil9 {fill:#CCCCCC}
    .fil5 {fill:#CED6E0}
    .fil2 {fill:#E8EAE9}
    .fil18 {fill:#F3F3F3}
    .fil8 {fill:#F7B64C}
    .fil7 {fill:#FFD15C}
    .fil20 {fill:white}
   ]]>
  </style>
 </defs>
 <g id="Layer_x0020_1">
  <metadata id="CorelCorpID_0Corel-Layer"/>
  <g id="meeting.svg">
   <g>
    <polygon class="fil0" points="314.55,593.62 268.21,412.48 275.23,409.67 321.57,592.22 "/>
    <polygon class="fil0" points="140.42,593.62 133.4,592.22 161.49,397.03 168.51,398.44 "/>
    <polygon class="fil0" points="352.46,593.62 304.72,412.48 311.74,409.67 359.48,592.22 "/>
    <polygon class="fil0" points="178.34,593.62 171.32,592.22 198,397.03 205.02,398.44 "/>
   </g>
   <path class="fil1" d="M132 391.42c0,1.4 25.28,21.06 68.81,29.49 43.53,8.43 151.66,-8.42 171.32,-22.47 19.66,-14.04 0,-87.06 -15.45,-99.7 -15.45,-12.64 -28.08,-7.02 -44.93,-33.7 -15.45,-26.68 -116.55,-46.34 -147.44,-29.49 -30.89,16.85 -73.02,78.64 -32.3,155.87z"/>
   <path class="fil2" d="M189.57 548.69c0,0 1.4,-16.85 1.4,-29.49 0,-12.64 33.7,-23.87 33.7,-23.87 0,0 2.81,50.55 5.62,60.38 2.81,9.83 2.81,9.83 2.81,9.83 0,0 -35.11,15.45 -43.53,-16.85z"/>
   <path class="fil3" d="M189.57 543.07c0,0 2.81,11.23 14.04,15.45 11.23,2.81 23.87,-9.83 25.28,-12.64 0,0 2.81,19.66 12.64,26.68 9.83,7.02 23.87,23.87 23.87,23.87 0,0 -9.83,11.23 -26.68,9.83 -16.85,-1.4 -40.72,-16.85 -44.94,-23.87 -4.21,-7.02 -11.23,-14.04 -4.21,-39.32z"/>
   <path class="fil4" d="M330 590.82l-2.81 4.21 0 5.62 16.85 4.21 0 -2.81c0,0 8.42,-1.4 15.45,4.21 7.02,5.62 14.04,11.23 23.87,11.23 8.42,0 19.66,-1.4 21.06,-7.02 2.81,-4.21 -50.55,-19.66 -74.42,-19.66z"/>
   <path class="fil3" d="M328.59 595.03c0,0 -4.21,-21.06 4.21,-30.89 0,0 -1.4,4.21 2.81,5.62 2.81,1.4 9.83,-2.81 21.06,-8.42 11.23,-5.62 21.06,0 21.06,0 0,0 11.23,19.66 15.45,23.87 5.62,4.21 30.89,15.45 37.92,15.45 7.02,0 1.4,19.66 -15.45,18.26 -16.85,-1.41 -40.72,-5.62 -50.55,-14.04 -11.23,-8.43 -36.51,-9.83 -36.51,-9.83z"/>
   <path class="fil5" d="M651.56 634.35l-231.7 0c-7.02,0 -12.64,-2.81 -16.85,-8.42 -4.21,-4.21 -5.62,-11.23 -5.62,-18.26l29.49 -193.78 136.21 2.81 106.72 182.55c4.21,7.02 4.21,15.45 0,22.47 -2.81,8.42 -9.83,12.64 -18.26,12.64zm-219.06 -213.44l-28.08 188.17c0,4.21 0,9.83 4.21,12.64 2.81,4.21 7.02,5.62 12.64,5.62l231.7 0c5.62,0 11.23,-2.81 14.04,-8.42 2.81,-5.62 2.81,-11.23 0,-15.45l-105.32 -179.74 -129.19 -2.81z"/>
   <ellipse class="fil6" cx="143.23" cy="232.74" rx="16.85" ry="25.28"/>
   <path class="fil4" d="M137.62 378.78c0,0 22.47,30.89 36.51,33.7 0,0 -8.42,22.47 0,53.36 8.42,30.89 16.85,61.79 16.85,61.79 0,0 11.23,-1.4 19.66,-2.81 8.42,-1.4 22.47,-8.42 22.47,-18.26 0,-9.83 0,-35.11 0,-51.96 0,-16.85 -1.4,-26.68 1.41,-33.7 2.81,-5.62 -1.41,-11.23 11.23,-14.04 12.64,-2.81 56.17,-2.81 56.17,-2.81l61.79 8.42c0,0 -12.64,80.04 -14.04,88.47 0,0 5.62,-1.4 15.45,4.21 9.83,5.62 25.28,9.83 25.28,9.83 0,0 22.47,-46.34 26.68,-60.38 4.21,-14.04 21.06,-57.57 23.87,-71.62 4.21,-14.04 4.21,-37.92 -21.06,-47.74 -25.28,-9.83 -49.15,-9.83 -49.15,-9.83l-202.21 -11.23 -30.89 64.6z"/>
   <g>
    <path class="fil7" d="M202.21 123.21c0,0 4.21,12.64 5.62,16.85 1.4,4.21 7.02,33.7 7.02,33.7l33.7 7.02 9.83 -22.47c0,0 5.62,-2.81 7.02,-15.45 1.4,-12.64 1.4,-23.87 1.4,-33.7 0,-9.83 -2.81,-25.28 -2.81,-25.28 0,0 -2.81,-14.04 -7.02,-19.66 -4.21,-5.62 -58.98,7.02 -61.79,18.26 -2.81,11.23 5.62,36.51 7.02,40.72l0 0z"/>
    <path class="fil7" d="M212.04 161.12c-1.4,-8.43 -2.81,-16.85 -4.21,-19.66 -1.4,-2.81 -2.81,-9.83 -4.21,-14.04 1.4,2.81 1.4,5.62 2.81,9.83 1.41,7.02 4.21,15.45 5.62,23.87z"/>
   </g>
   <path class="fil8" d="M248.55 180.78l8.43 -19.66c0,0 -9.83,7.02 -22.47,2.81 -12.64,-4.21 -26.68,-21.06 -26.68,-21.06 0,0 15.45,28.08 40.72,37.91z"/>
   <path class="fil9" d="M234.51 169.55l4.21 0 28.08 -2.81 43.53 151.66c0,0 -30.89,30.89 -58.98,32.3 -28.08,1.4 -74.42,-15.45 -82.85,-19.66 -7.02,-4.21 33.7,-165.7 33.7,-165.7l32.3 4.21z"/>
   <g>
    <path class="fil10" d="M238.72 186.4l4.21 4.21c0,0 2.81,9.83 4.21,12.64 0,2.81 23.87,165.7 23.87,165.7l-14.04 19.66 -18.26 -15.45c0,0 -14.04,-143.23 -11.23,-155.87 1.4,-12.64 5.62,-25.28 5.62,-25.28l5.62 -5.62z"/>
    <path class="fil10" d="M228.89 172.35l5.62 -1.4 4.21 0 9.83 4.21c0,0 -5.62,11.23 -4.21,16.85 -4.21,-1.4 -7.02,-1.4 -11.23,1.41 0,0 -2.81,-12.64 -7.02,-15.45 -5.62,-2.81 2.81,-5.62 2.81,-5.62z"/>
   </g>
   <path class="fil3" d="M199.4 120.4c0,0 -8.43,1.4 -21.06,4.21 -12.64,2.81 -39.32,5.62 -39.32,5.62 0,0 7.02,11.23 5.62,28.08 0,18.26 9.83,33.7 9.83,44.94 0,11.23 -18.26,113.74 -29.49,136.21 -11.23,22.47 -18.26,32.3 -19.66,51.96 -2.81,19.66 -8.42,49.15 0,54.76 8.43,5.62 19.66,-21.06 35.11,-43.53 15.45,-22.47 58.98,-106.72 63.19,-130.59 4.21,-25.28 -4.21,-151.66 -4.21,-151.66z"/>
   <path class="fil0" d="M164.3 279.08l8.42 4.21c0,0 9.83,2.81 5.62,-30.89 0,0 -8.43,2.81 -11.23,5.62 -2.81,2.81 -2.81,21.06 -2.81,21.06z"/>
   <g>
    <path class="fil11" d="M213.44 173.76l0 22.47c0,15.45 -11.23,75.83 -11.23,75.83 0,0 1.41,-32.3 -2.81,-42.13 -2.81,-9.83 -19.66,-49.15 -19.66,-49.15l11.23 -7.02 -8.42 -5.62 15.45 -46.34c0,0 1.41,0 1.41,1.4l0 1.41 0 0c0,0 4.21,12.64 5.62,16.85 2.81,2.81 8.42,26.68 8.42,32.3z"/>
    <path class="fil11" d="M213.44 194.82l0 1.41c0,15.45 -11.23,75.83 -11.23,75.83 0,0 1.41,-32.3 -2.81,-42.13 -2.81,-9.83 -19.66,-49.15 -19.66,-49.15l11.23 -7.02 -8.42 -5.62 15.45 -46.34c1.41,1.4 2.81,2.81 2.81,5.62 1.4,2.81 1.4,5.62 2.81,9.83 2.81,8.42 4.21,15.45 5.62,23.87l0 0c4.21,11.23 4.21,22.47 4.21,33.7z"/>
   </g>
   <g>
    <path class="fil7" d="M169.91 256.61c0,0 11.23,1.41 11.23,0 0,-2.81 1.4,-4.21 4.21,-7.02 2.81,-1.4 5.62,-1.4 8.42,-1.4 4.21,0 12.64,0 14.04,2.81 2.81,2.81 0,7.02 -4.21,5.62 -4.21,0 -7.02,0 -8.43,1.41 -1.4,1.4 -1.4,1.4 -1.4,1.4 0,0 9.83,2.81 14.04,1.4 4.21,-1.4 12.64,-1.4 16.85,-1.4 4.21,1.4 8.42,2.81 7.02,5.62 0,0 2.81,1.41 1.4,4.21 -1.4,2.81 -8.42,5.62 -16.85,5.62 -9.83,0 -23.87,2.81 -32.3,1.41 -8.42,0 -21.06,-2.81 -32.3,-4.21 -11.23,0 -11.23,0 -11.23,0l29.49 -15.45z"/>
    <path class="fil7" d="M207.83 116.18c2.81,7.02 2.81,14.04 0,15.45 -4.21,1.4 -8.42,-2.81 -12.64,-9.83 -2.81,-7.02 -2.81,-14.04 0,-15.45 4.21,-1.4 8.43,2.81 12.64,9.83z"/>
   </g>
   <path class="fil11" d="M369.31 246.78c0,9.83 -2.81,16.85 -2.81,16.85l-21.06 2.81c0,0 -1.4,-28.08 -26.68,-33.7 -1.4,-9.83 -2.81,-18.26 -2.81,-23.87 0,-22.47 18.26,-68.81 18.26,-68.81 0,0 8.43,5.62 7.02,15.45 -1.4,9.83 5.62,14.04 5.62,19.66 0,5.61 -1.4,7.02 0,12.64 2.81,4.21 23.87,49.15 22.47,58.98z"/>
   <path class="fil3" d="M369.31 325.42c0,0 -25.28,2.81 -35.11,4.21 -11.23,1.4 -16.85,1.4 -21.06,-2.81 -5.62,-4.21 -29.49,-53.36 -29.49,-53.36 0,0 -8.42,-39.32 -9.83,-75.83 0,-23.87 -5.62,-50.55 -8.42,-66 0,-4.21 0,-8.42 0,-12.64 5.62,1.4 21.06,5.62 32.3,8.42 14.04,4.21 37.92,9.83 37.92,9.83 0,0 -18.26,46.34 -18.26,68.81 0,22.47 14.04,99.7 19.66,105.32 7.02,8.42 32.3,14.04 32.3,14.04z"/>
   <path class="fil5" d="M317.36 263.63c0,0 -9.83,-1.4 -5.62,-32.3 0,0 5.62,-2.81 12.64,1.41 7.02,4.21 12.64,16.85 9.83,22.47 -2.81,5.62 -14.04,8.42 -16.85,8.42z"/>
   <path class="fil11" d="M300.51 309.97c-1.4,-1.4 -19.66,-25.28 -28.08,-56.17 -5.62,-21.06 -9.83,-66 -12.64,-95.49 1.41,-2.81 2.81,-5.62 4.21,-12.64 0,-5.62 1.4,-9.83 1.4,-15.45l19.66 35.11 -4.21 8.42 12.64 1.41c0,0 -7.02,56.17 -5.62,71.61 1.4,14.04 12.64,60.38 12.64,63.19z"/>
   <g>
    <path class="fil7" d="M317.36 229.93l-5.62 1.4c0,0 -7.02,0 -11.23,-1.4 -4.21,-1.4 -12.64,-5.62 -16.85,-2.81 -4.21,1.41 -12.64,16.85 -12.64,16.85l33.7 18.26c0,0 4.21,-1.4 5.62,-2.81 1.4,-1.4 8.42,2.81 18.25,0 11.23,-1.4 11.23,-1.4 11.23,-1.4 0,0 -5.62,-14.04 -8.43,-19.66 -2.81,-5.62 -9.83,-7.02 -14.04,-8.43z"/>
    <path class="fil12" d="M480.25 68.44l11.23 8.42 0 2.81 -23.87 61.79c0,0 -7.02,-8.42 -12.64,-9.83 -5.62,-1.4 -15.45,8.42 -22.47,7.02 -7.02,-1.4 -9.83,-4.21 -11.23,-7.02 -1.41,-4.21 -12.64,-4.21 -7.02,-9.83 0,0 -4.21,1.4 -4.21,-2.81 0,-4.21 -4.21,-5.62 -4.21,-5.62 0,0 -12.64,2.81 -11.23,-4.21 1.4,-7.02 4.21,-15.45 4.21,-15.45 0,0 -1.4,-1.4 -4.21,-2.81 -2.81,-1.4 -14.04,-15.45 -12.64,-28.08 1.41,-12.64 50.55,-26.68 70.21,-25.28 18.25,2.81 28.08,30.89 28.08,30.89z"/>
   </g>
   <path class="fil2" d="M426.89 492.52c0,0 14.04,33.7 26.68,40.72 12.64,7.02 16.85,14.04 16.85,14.04l-54.76 23.87c0,0 0,-19.66 -7.02,-33.7 -7.02,-15.45 -23.87,-30.89 -23.87,-30.89l42.13 -14.04z"/>
   <path class="fil4" d="M418.46 585.2c0,0 -16.85,9.83 -28.08,12.64 -11.23,2.81 -23.87,7.02 -23.87,15.45 0,8.42 14.04,12.64 28.08,12.64 14.04,0 37.92,-4.21 44.94,-12.64 7.02,-8.42 18.26,-16.85 18.26,-16.85l5.62 5.62c0,0 28.08,-14.04 30.89,-22.47 4.21,-8.43 1.4,-8.43 1.4,-8.43l-7.02 -9.83 -70.21 23.87z"/>
   <path class="fil13" d="M412.84 561.33c0,0 8.43,-8.43 23.87,-8.43 15.45,0 29.49,-11.23 29.49,-11.23 0,0 11.23,2.81 22.47,18.26 0,0 -18.25,8.42 -29.49,16.85 -11.23,9.83 -16.85,14.04 -26.68,16.85 -11.23,4.21 -58.98,5.62 -66,19.66 0,0 -1.41,-5.62 11.23,-11.23 12.64,-7.02 26.68,-11.23 29.49,-18.26 4.21,-9.83 5.62,-22.47 5.62,-22.47z"/>
   <path class="fil6" d="M373.53 357.71c0,0 -56.17,7.02 -67.4,15.45 -11.23,8.42 -12.64,25.28 -9.83,35.11 2.81,8.42 94.08,115.15 102.51,119.36 0,0 7.02,-9.83 18.26,-16.85 11.23,-7.02 14.04,-16.85 14.04,-16.85 0,0 -37.91,-44.94 -49.15,-60.38 -11.23,-15.45 -15.45,-16.85 -15.45,-16.85l56.17 -29.49 -49.15 -29.49z"/>
   <path class="fil0" d="M617.86 617.5l-216.25 0c-5.62,0 -11.23,-2.81 -15.45,-7.02 -4.21,-4.21 -5.62,-11.23 -4.21,-16.85l26.68 -181.15 127.78 2.81 99.7 169.91c4.21,7.02 4.21,14.04 0,21.06 -4.21,7.02 -11.23,11.23 -18.25,11.23zm-203.61 -198l-26.68 175.53c0,4.21 0,8.42 2.81,11.23 2.81,2.81 7.02,5.62 11.23,5.62l216.25 0c5.62,0 9.83,-2.81 12.64,-7.02 2.81,-4.21 2.81,-9.83 0,-15.45l-98.3 -167.1 -117.95 -2.81z"/>
   <path class="fil14" d="M266.8 522.01c0,0 2.81,8.43 19.66,11.23 15.45,2.81 35.11,14.04 35.11,14.04 0,0 40.72,-77.23 44.93,-92.68 4.21,-15.45 7.02,-37.92 7.02,-37.92 0,0 46.34,-5.62 92.68,-2.81 46.34,2.81 112.34,-23.87 119.36,-39.32 7.02,-15.45 11.23,-49.15 11.23,-49.15l-146.04 11.23c0,0 -5.62,9.83 -18.26,11.23 -14.04,1.4 -70.21,2.81 -82.85,8.42 -12.64,4.21 -25.28,5.62 -30.89,29.49 -5.62,23.87 -30.89,87.06 -51.96,136.21z"/>
   <path class="fil15" d="M491.48 79.68c0,0 -25.28,23.87 -30.89,61.79l22.47 18.26 26.68 -60.38 -18.26 -19.66z"/>
   <path class="fil16" d="M595.4 293.12l-16.85 80.04c0,0 -129.19,-8.42 -137.61,-23.87 -8.43,-15.45 2.81,-81.44 7.02,-96.89 4.21,-14.04 18.26,-49.15 26.68,-87.06 8.43,-37.92 35.11,-68.81 35.11,-68.81l8.42 1.4c0,0 23.87,12.64 32.3,18.26 8.43,5.62 28.08,29.49 32.3,40.72 1.4,12.64 12.64,136.21 12.64,136.21z"/>
   <path class="fil14" d="M502.72 86.7c0,0 -9.83,5.62 -18.26,35.11 -9.83,29.49 -16.85,64.6 -21.06,77.23 -4.21,12.64 -15.45,53.36 -15.45,53.36 0,0 19.66,-49.15 25.28,-68.81 4.21,-19.66 14.04,-66 44.94,-85.66l-15.45 -11.23z"/>
   <path class="fil15" d="M391.78 419.5c0,0 18.26,-15.45 30.89,-32.3 12.64,-16.85 50.55,-66 85.66,-80.04 35.11,-14.04 130.59,-33.7 130.59,-33.7 0,0 -15.45,61.79 -18.26,87.06 -2.81,25.28 -19.66,68.81 -70.21,73.02 -50.55,2.81 -158.68,-14.04 -158.68,-14.04z"/>
   <path class="fil14" d="M491.48 76.87c-4.21,4.21 -21.06,7.02 -25.28,1.4 -4.21,-7.02 -18.26,-11.23 -23.87,-5.62 -5.62,7.02 -1.41,16.85 -1.41,16.85l-7.02 2.81c0,0 -1.4,-4.21 -4.21,-7.02 -2.81,-4.21 -12.64,-5.62 -12.64,-11.23 0,-5.62 -5.62,-15.45 -14.04,-16.85 -8.42,-1.4 -19.66,4.21 -19.66,4.21 0,0 -9.83,-2.81 -7.02,-11.23 2.81,-8.43 22.47,-40.72 47.74,-49.15 25.28,-5.62 53.36,12.64 60.38,28.08 5.62,15.44 7.02,47.74 7.02,47.74z"/>
   <path class="fil17" d="M445.14 134.44l0 0c4.21,-1.4 7.02,-4.21 9.83,-2.81 1.4,0 2.81,1.4 4.21,1.4 4.21,-18.26 1.4,-39.32 1.4,-39.32 0,16.85 -15.45,40.72 -15.45,40.72z"/>
   <path class="fil18" d="M311.74 231.33c0,0 11.23,-1.4 15.45,4.21 4.21,5.62 4.21,23.87 -9.83,28.08l29.49 -0c0,0 2.81,-16.85 -5.62,-25.28 -8.42,-8.42 -16.85,-9.83 -29.49,-7.02z"/>
   <path class="fil14" d="M349.65 199.04l0 46.34c-2.81,1.4 -5.62,2.81 -7.02,5.62 -4.21,-7.02 -9.83,-16.85 -22.47,-19.66 -1.4,-9.83 -2.81,-16.85 -2.81,-22.47 0,-2.81 0,-5.62 0,-8.42l32.3 0 0 -1.41z"/>
   <path class="fil12" d="M397.4 276.27c0,0 -5.62,-1.4 -12.64,-1.4 -7.02,0 -12.64,2.81 -18.26,0 -4.21,-2.81 -5.62,-4.21 -9.83,-2.81 -2.81,1.4 -4.21,2.81 -5.62,2.81 -1.4,0 -2.81,1.4 -2.81,0 -1.4,-1.41 -4.21,-2.81 -4.21,-4.21 0,0 -2.81,-2.81 -1.4,-4.21 0,0 -1.4,-2.81 -1.4,-4.21 0,0 -5.62,-1.4 -2.81,-7.02 2.81,-5.62 9.83,-8.42 12.64,-11.23 4.21,-2.81 7.02,-4.21 9.83,-2.81 4.21,1.4 16.85,8.42 19.66,8.42 2.81,1.41 40.72,1.41 40.72,1.41l-1.4 25.28 -22.47 0 0 -0z"/>
   <path class="fil19" d="M414.25 246.78l-14.04 0c0,0 -5.62,22.47 -2.81,36.51l25.28 4.21 -8.42 -40.72z"/>
   <path class="fil13" d="M485.86 199.04c0,0 -7.02,-40.72 2.81,-60.38 9.83,-19.66 39.32,-19.66 51.96,-7.02 12.64,12.64 22.47,42.13 21.06,60.38 -1.41,18.26 -12.64,36.51 -12.64,50.55 0,14.04 -4.21,19.66 -9.83,25.28 -4.21,5.62 -12.64,16.85 -18.26,19.66 -5.62,1.4 -110.94,8.42 -109.53,7.02 1.4,-1.4 -4.21,-36.51 -2.81,-47.74 0,0 35.11,-1.41 40.72,-1.41 5.62,1.41 8.42,0 12.64,-2.81 4.21,-1.4 4.21,-2.81 7.02,-1.4 2.81,1.4 8.43,1.4 11.23,0 2.81,-1.4 5.62,-5.62 5.62,-5.62 0,0 -4.21,-18.26 -1.4,-22.47 2.81,-4.21 1.4,-14.04 1.4,-14.04z"/>
   <g>
    <path class="fil20" d="M261.19 170.95l-8.43 21.06 -14.04 -22.47c15.45,-4.21 22.47,-12.64 22.47,-12.64 0,4.21 0,8.43 0,14.04z"/>
    <path class="fil20" d="M234.51 169.55c0,0 -5.62,4.21 -8.43,9.83 -2.81,5.62 -5.62,9.83 -5.62,9.83l-7.02 -14.04c-1.41,-12.64 -2.81,-23.87 -5.62,-36.51 0,2.81 14.04,26.68 26.68,30.89z"/>
   </g>
   <path class="fil14" d="M200.8 120.4l2.81 0c0,0 -5.62,-8.43 -2.81,-14.04 2.81,-5.62 -5.62,-22.47 4.21,-19.66 9.83,2.81 33.7,-5.62 40.72,-12.64 7.02,-7.02 9.83,-7.02 12.64,-4.21 2.81,2.81 5.62,14.04 5.62,14.04 0,0 -2.81,-11.23 -5.62,-18.26 -2.81,-7.02 2.81,-14.04 -21.06,-21.06 -23.87,-7.02 -44.94,2.81 -51.96,21.06 -7.02,18.26 1.4,36.51 7.02,42.13 4.21,4.21 8.43,12.64 8.43,12.64z"/>
   <path class="fil18" d="M151.66 250.99l25.28 1.4c0,0 -8.42,4.21 -8.42,16.85 0,12.64 2.81,12.64 2.81,12.64l-42.13 -7.02c1.41,1.4 19.66,-23.87 22.47,-23.87z"/>
   <path class="fil11" d="M169.91 250.99c-15.45,7.02 -21.06,12.64 -23.87,29.49l-71.62 -4.21c0,0 1.4,-29.49 2.81,-37.92 1.4,-8.42 7.02,-22.47 15.45,-30.89 7.02,-8.42 22.47,-29.49 23.87,-33.7 1.4,-4.21 5.62,-8.43 7.02,-11.23 1.4,-2.81 4.21,-12.64 5.62,-21.06 1.41,-9.83 9.83,-11.23 9.83,-11.23 0,0 7.02,11.23 5.62,28.08 0,18.26 9.83,33.7 9.83,44.94 0,2.81 -1.4,8.42 -1.4,16.85l0 0 -11.23 25.28 4.21 1.4 23.87 4.21z"/>
   <g>
    <rect class="fil15" x="198" y="298.74" width="22.47" height="286.46"/>
    <path class="fil15" d="M410.04 295.93l-400.21 0c-5.62,0 -9.83,-4.21 -9.83,-9.83l0 0c0,-5.62 4.21,-9.83 9.83,-9.83l400.21 0c5.62,0 9.83,4.21 9.83,9.83l0 0c-0,5.62 -4.21,9.83 -9.83,9.83z"/>
   </g>
   <path class="fil10" d="M410.04 295.93c-130.59,9.83 -263.99,8.43 -400.21,0l400.21 0z"/>
   <path class="fil10" d="M327.19 603.45l-235.91 0c0,-9.83 8.42,-18.25 18.26,-18.25l199.4 -0c9.83,0 18.25,8.43 18.25,18.26z"/>
   <path class="fil2" d="M304.72 589.41l-28.08 9.83 -19.66 -25.28c0,0 11.23,-11.23 16.85,-22.47 2.81,-5.62 7.02,-12.64 9.83,-18.26l1.4 0c12.64,2.81 28.08,9.83 32.3,14.04 -4.21,7.02 -14.04,28.08 -12.64,42.13z"/>
   <path class="fil4" d="M190.98 609.07l-9.83 0c0,0 -4.21,5.62 -2.81,7.02 1.4,1.4 30.89,12.64 50.55,16.85 18.26,4.21 43.53,-2.81 47.74,-7.02l0 7.02 28.08 0c4.21,0 7.02,-2.81 7.02,-7.02l0 -9.83 -9.83 -7.02 -110.93 0z"/>
   <path class="fil16" d="M258.38 571.16c0,0 7.02,0 11.23,7.02 4.21,7.02 11.23,11.23 16.85,12.64 5.62,1.4 18.26,-4.21 19.66,-8.42 0,0 5.62,23.87 4.21,33.7 0,0 -22.47,0 -37.92,7.02 -16.85,5.62 -22.47,9.83 -40.72,5.62 -18.26,-4.21 -47.75,-15.45 -50.55,-19.66 0,0 12.64,-1.4 25.28,-2.81 12.64,-1.4 25.28,-15.45 33.7,-22.47 8.42,-8.43 18.26,-12.64 18.26,-12.64z"/>
   <path class="fil5" d="M310.34 199.04l-133.4 0c-4.21,0 -7.02,2.81 -7.02,7.02l9.83 70.21 126.38 0 9.83 -70.21c1.41,-2.81 -2.81,-7.02 -5.62,-7.02z"/>
   <ellipse class="fil0" cx="244.34" cy="238.35" rx="7.02" ry="4.21"/>
   <g>
   </g>
   <g>
   </g>
   <g>
   </g>
   <g>
   </g>
   <g>
   </g>
   <g>
   </g>
   <g>
   </g>
   <g>
   </g>
   <g>
   </g>
   <g>
   </g>
   <g>
   </g>
   <g>
   </g>
   <g>
   </g>
   <g>
   </g>
   <g>
   </g>
  </g>
 </g>
</svg>
