<?xml version="1.0" encoding="UTF-8"?>
<!DOCTYPE svg PUBLIC "-//W3C//DTD SVG 1.1//EN" "http://www.w3.org/Graphics/SVG/1.1/DTD/svg11.dtd">
<!-- Creator: CorelDRAW 2019 (64-Bit) -->
<svg xmlns="http://www.w3.org/2000/svg" xml:space="preserve" width="1.23228in" height="0.894398in" version="1.1" style="shape-rendering:geometricPrecision; text-rendering:geometricPrecision; image-rendering:optimizeQuality; fill-rule:evenodd; clip-rule:evenodd"
viewBox="0 0 348.16 252.7"
 xmlns:xlink="http://www.w3.org/1999/xlink">
 <defs>
  <style type="text/css">
   <![CDATA[
    .fil11 {fill:lime}
    .fil7 {fill:lime}
    .fil10 {fill:#264600}
    .fil9 {fill:#299A00}
    .fil0 {fill:#5A4146}
    .fil12 {fill:#5B5D6E}
    .fil1 {fill:#694B4B}
    .fil8 {fill:#959CB5}
    .fil5 {fill:#AFB9D2}
    .fil3 {fill:#D29B6E}
    .fil4 {fill:#D5DCED}
    .fil2 {fill:#E6AF78}
    .fil6 {fill:#F0C087}
   ]]>
  </style>
 </defs>
 <g id="Layer_x0020_1">
  <metadata id="CorelCorpID_0Corel-Layer"/>
  <g id="team.svg">
   <path class="fil0" d="M252.7 106.69l0 3.94c0,4.83 0.78,9.63 2.3,14.21l8.93 26.78 16.85 0 0 -61.77 -11.23 0c-9.3,0 -16.85,7.54 -16.85,16.85z"/>
   <path class="fil1" d="M329.59 118.36l-9.5 33.26 -44.92 -39.31c-6.2,0 -11.23,-5.03 -11.23,-11.23l0 0c0,-9.3 7.54,-16.85 16.85,-16.85l39.31 0c6.2,0 11.23,5.03 11.23,11.23l0 10.55c0,4.17 -0.58,8.33 -1.73,12.34z"/>
   <rect class="fil2" x="275.16" y="168.47" width="33.69" height="24.85"/>
   <path class="fil3" d="M275.16 178.78c5.21,2.12 10.89,3.31 16.85,3.31 5.96,0 11.64,-1.19 16.85,-3.31l0 -10.31 -33.69 0 0 10.31 0 0z"/>
   <path class="fil4" d="M335.95 189.83l-27.09 -7.74 -16.85 11.18 -16.85 -11.18 -27.09 7.74c-7.23,2.07 -12.22,8.68 -12.22,16.2l0 41.06c0,3.1 2.51,5.62 5.62,5.62l101.08 0c3.1,0 5.62,-2.51 5.62,-5.62l0 -41.06c0,-7.52 -4.99,-14.13 -12.22,-16.2z"/>
   <polygon class="fil5" points="297.62,252.7 286.39,252.7 289.2,193.32 294.82,193.32 "/>
   <path class="fil6" d="M292.01 174.08l0 0c-18.61,0 -33.69,-15.09 -33.69,-33.69l0 -6.58c0,-2.98 1.18,-5.83 3.29,-7.94l10.18 -10.18c2.16,-2.16 5.1,-3.4 8.15,-3.3 17.95,0.57 33.84,4.41 42.53,12.9 2.13,2.08 3.24,4.98 3.24,7.95l0 7.16c0,18.61 -15.09,33.69 -33.69,33.69z"/>
   <path class="fil2" d="M275.16 135.2c0,-6.48 5.44,-11.63 11.91,-11.21 11.34,0.72 28.16,2.62 38.48,7.58 -0.34,-2.37 -1.35,-4.61 -3.08,-6.29 -8.69,-8.48 -24.57,-12.33 -42.53,-12.89l0 0 0 0c-3.05,-0.1 -6,1.14 -8.15,3.3l-10.18 10.18c-2.11,2.11 -3.29,4.96 -3.29,7.94l0 6.58c0,15.36 10.3,28.3 24.36,32.35 -4.68,-5.77 -7.51,-13.1 -7.51,-21.12l-0 -16.42 0 0z"/>
   <path class="fil7" d="M325.7 222.76c0,-4.47 1.77,-8.75 4.93,-11.91l14.46 -14.46c1.93,2.76 3.07,6.09 3.07,9.64l0 41.06c0,3.1 -2.51,5.62 -5.62,5.62l-16.85 0 0 -29.94 0 0z"/>
   <path class="fil8" d="M294.82 204.55l-5.62 0c-1.55,0 -2.81,-1.26 -2.81,-2.81l0 -8.42 11.23 0 0 8.42c0,1.55 -1.26,2.81 -2.81,2.81z"/>
   <g>
    <path class="fil9" d="M292.01 193.27l-9.52 7.27c-1.64,1.25 -4.01,0.75 -5,-1.06l-8.54 -15.59 3.44 -5.24c0.76,-1.16 2.39,-1.36 3.41,-0.42l16.21 15.04z"/>
    <path class="fil9" d="M292.01 193.27l9.52 7.27c1.64,1.25 4.01,0.75 5,-1.06l8.54 -15.59 -3.44 -5.24c-0.76,-1.16 -2.39,-1.36 -3.41,-0.42l-16.21 15.04z"/>
   </g>
   <path class="fil0" d="M100.52 171.74c-4.8,-12.71 -8.61,-34.57 -9.43,-45.95 -1.56,-21.66 -17.88,-39.31 -39.94,-39.31 -22.06,0 -38.38,17.65 -39.94,39.31 -0.82,11.38 -4.63,33.24 -9.43,45.95 -1.06,2.8 0.16,5.89 2.92,7.14 5.14,2.33 16.11,6.9 29.33,8.67l34.24 0c13.16,-1.78 24.2,-6.35 29.33,-8.67 2.76,-1.25 3.98,-4.34 2.92,-7.14z"/>
   <path class="fil1" d="M97.6 178.88c2.76,-1.25 3.98,-4.34 2.92,-7.14 -4.8,-12.72 -8.61,-34.57 -9.43,-45.95 -1.56,-21.66 -17.88,-39.31 -39.94,-39.31 -0.06,0 -0.11,0 -0.17,0 -16.93,0.07 -22.91,23.15 -8.34,31.77 0.88,0.52 1.44,0.77 1.44,0.77l12.76 68.55 11.42 0c13.16,-1.78 24.2,-6.35 29.33,-8.67z"/>
   <path class="fil2" d="M91.77 198.83l-18.17 -9.09c-3.81,-1.9 -6.21,-5.79 -6.21,-10.05l0 -16.85 -33.69 0 0 16.85c0,4.25 -2.4,8.14 -6.21,10.05l-18.17 9.09c-5.71,2.85 -9.31,8.69 -9.31,15.07l0 33.19c0,3.1 2.51,5.62 5.62,5.62l89.85 0c3.1,0 5.62,-2.51 5.62,-5.62l0 -33.18c0,-6.38 -3.61,-12.21 -9.31,-15.07z"/>
   <path class="fil3" d="M50.54 185.31c6.05,0 11.84,-1.25 17.15,-3.47 -0.14,-0.71 -0.3,-1.41 -0.3,-2.15l0 -16.85 -33.69 0 0 16.85c0,0.74 -0.16,1.45 -0.3,2.16 5.31,2.21 11.1,3.45 17.15,3.45z"/>
   <path class="fil10" d="M91.77 198.83l-12.95 -6.47c-6,9.27 -16.42,15.42 -28.28,15.42 -11.87,0 -22.28,-6.15 -28.28,-15.42l-12.95 6.47c-5.71,2.85 -9.31,8.69 -9.31,15.07l0 33.19c0,3.1 2.51,5.62 5.62,5.62l89.85 0c3.1,0 5.62,-2.51 5.62,-5.62l0 -33.18c0,-6.38 -3.61,-12.21 -9.31,-15.07z"/>
   <path class="fil6" d="M50.54 174.08l0 0c-17.13,0 -31.27,-12.78 -33.41,-29.33 -0.31,-2.4 0.84,-4.75 3,-5.84 2.59,-1.3 6.34,-3.5 9.94,-6.71 4.01,-3.57 6.36,-7.34 7.68,-10.11 1.14,-2.38 3.77,-3.73 6.33,-3.08 19.77,5.04 33.23,15.33 38.12,19.53 1.31,1.13 2.07,2.79 1.93,4.52 -1.36,17.36 -15.88,31.03 -33.59,31.03z"/>
   <path class="fil2" d="M82.2 138.54c-4.88,-4.2 -18.34,-14.49 -38.12,-19.53 -2.56,-0.65 -5.19,0.69 -6.33,3.08 -1,2.1 -2.67,4.77 -5.13,7.49 -0,0.01 -0,0.01 -0,0.02 -0.77,0.87 -1.58,1.74 -2.55,2.6 -3.6,3.21 -7.35,5.41 -9.94,6.71 -2.16,1.09 -3.31,3.44 -3,5.84 1.92,14.86 13.55,26.69 28.3,28.95 -6.72,-4.57 -11.74,-10.86 -11.74,-22.08l0 -8.01c1.28,-0.94 2.56,-1.88 3.85,-3.03 3.12,-2.79 5.85,-6.01 8.03,-9.48 15.13,4.72 25.38,12.58 29.27,15.92 1.06,0.93 3.71,3.37 6.8,6.27 1.33,-3.2 2.21,-6.63 2.49,-10.24 0.13,-1.73 -0.62,-3.39 -1.93,-4.52z"/>
   <path class="fil9" d="M3.42 203.78c-2.16,2.87 -3.42,6.39 -3.42,10.12l0 33.19c0,3.1 2.51,5.62 5.62,5.62l16.85 0 0 -28.29c0,-3.41 -1.55,-6.64 -4.21,-8.77l-14.82 -11.86z"/>
   <path class="fil11" d="M254.76 191.17l-46.98 -17.09 -33.69 11.23 -33.69 -11.23 -46.98 17.09c-8.88,3.23 -14.79,11.66 -14.79,21.11l0 34.81c0,3.1 2.51,5.62 5.62,5.62l179.7 0c3.1,0 5.62,-2.52 5.62,-5.62l0 -34.81c0,-9.45 -5.91,-17.88 -14.79,-21.11z"/>
   <polygon class="fil10" points="168.2,196.55 162.85,252.7 185.31,252.7 179.97,196.55 "/>
   <path class="fil12" d="M179.98 204.26l-11.79 0c-2.17,0 -3.93,-1.76 -3.93,-3.93l0 -15.01 19.65 0 0 15.01c0,2.17 -1.76,3.93 -3.93,3.93z"/>
   <path class="fil9" d="M263.5 196.97c3.79,4.07 6.04,9.49 6.04,15.3l0 34.81c0,3.1 -2.51,5.62 -5.62,5.62l-28.08 -0 0 -18.77c0,-5.96 2.37,-11.67 6.58,-15.88l21.07 -21.07z"/>
   <path class="fil0" d="M235.85 58.27l0 -47.04c0,-6.2 -5.03,-11.23 -11.23,-11.23l-67.39 0c-24.81,0 -44.92,20.11 -44.92,44.92l0 13.35c0,6.04 0.97,12.03 2.88,17.76l1.87 5.61c0.57,1.72 0.86,3.52 0.86,5.33l0 2.88 112.31 0 0 -2.88c0,-1.81 0.29,-3.61 0.86,-5.33l1.87 -5.61c1.91,-5.73 2.88,-11.72 2.88,-17.76z"/>
   <path class="fil1" d="M140.39 22.81c0,12.6 10.21,22.81 22.81,22.81l3.16 0 1.53 44.22 62.35 0 0 -2.88c0,-1.81 0.29,-3.61 0.86,-5.33l1.87 -5.61c1.91,-5.73 2.88,-11.72 2.88,-17.76l0 -47.04c0,-6.2 -5.03,-11.23 -11.23,-11.23l-61.42 0c-12.6,0 -22.81,10.21 -22.81,22.81z"/>
   <rect class="fil2" x="140.39" y="134.78" width="67.39" height="50.54"/>
   <path class="fil3" d="M140.39 153.76c9.92,5.75 21.41,9.09 33.69,9.09 12.29,0 23.77,-3.34 33.69,-9.09l0 -18.99 -67.39 0 0 18.99 0 0z"/>
   <g>
    <path class="fil9" d="M174.08 185.31l-17.91 17.91c-2.41,2.41 -6.39,2.14 -8.44,-0.58l-18.57 -24.47 4.86 -10.24c1.43,-3.02 5.17,-4.13 8.02,-2.37l32.05 19.75z"/>
    <path class="fil9" d="M174.08 185.31l17.91 17.91c2.41,2.41 6.39,2.14 8.44,-0.58l18.57 -24.47 -4.86 -10.24c-1.43,-3.02 -5.17,-4.13 -8.02,-2.37l-32.05 19.75z"/>
   </g>
   <path class="fil6" d="M174.08 151.62l0 0c-31.01,0 -56.16,-25.14 -56.16,-56.16l0 -6.58c0,-2.98 1.18,-5.84 3.29,-7.94l4.65 -4.65c2.11,-2.11 3.29,-4.96 3.29,-7.94l0 -13.46c0,-2.6 1.75,-4.86 4.28,-5.46 13.28,-3.14 54.61,-10.57 82.74,10.12 1.83,1.34 2.84,3.55 2.84,5.82l0 2.98c0,2.98 1.18,5.84 3.29,7.94l4.65 4.65c2.11,2.11 3.29,4.96 3.29,7.94l0 6.58c0,31.01 -25.14,56.16 -56.15,56.16z"/>
   <path class="fil2" d="M216.17 59.55c-19.78,-14.55 -46.06,-15.18 -64.55,-13.19 -7.8,0.84 -14.25,2.14 -18.19,3.07 -2.53,0.6 -4.28,2.86 -4.28,5.46l0 13.46c0,2.98 -1.18,5.84 -3.29,7.94l-4.65 4.65c-2.11,2.11 -3.29,4.96 -3.29,7.94l0 6.58c0,28.71 21.56,52.35 49.37,55.71 -9.69,-10.09 -15.68,-23.76 -15.68,-38.86l0 -41.05c0,-5.69 4.23,-10.45 9.88,-11.15 13.48,-1.69 38.16,-2.71 57.51,8.24l0 -2.98c0,-2.27 -1.01,-4.48 -2.84,-5.82z"/>
   <path class="fil9" d="M84.66 196.97c-3.79,4.07 -6.04,9.49 -6.04,15.3l0 34.81c0,3.1 2.51,5.62 5.62,5.62l28.08 -0 0 -18.77c0,-5.96 -2.37,-11.67 -6.58,-15.88l-21.07 -21.07z"/>
   <g>
   </g>
   <g>
   </g>
   <g>
   </g>
   <g>
   </g>
   <g>
   </g>
   <g>
   </g>
   <g>
   </g>
   <g>
   </g>
   <g>
   </g>
   <g>
   </g>
   <g>
   </g>
   <g>
   </g>
   <g>
   </g>
   <g>
   </g>
   <g>
   </g>
  </g>
 </g>
</svg>
