<?xml version="1.0" encoding="UTF-8"?>
<!DOCTYPE svg PUBLIC "-//W3C//DTD SVG 1.1//EN" "http://www.w3.org/Graphics/SVG/1.1/DTD/svg11.dtd">
<!-- Creator: CorelDRAW 2019 (64-Bit) -->
<svg xmlns="http://www.w3.org/2000/svg" xml:space="preserve" width="2.56389in" height="1.26251in" version="1.1" style="shape-rendering:geometricPrecision; text-rendering:geometricPrecision; image-rendering:optimizeQuality; fill-rule:evenodd; clip-rule:evenodd"
viewBox="0 0 1408.63 693.64"
 xmlns:xlink="http://www.w3.org/1999/xlink">
 <defs>
  <style type="text/css">
   <![CDATA[
    .fil0 {fill:black}
    .fil5 {fill:#299A00}
    .fil1 {fill:#333333}
    .fil2 {fill:#9C684E}
    .fil4 {fill:#CCCCCC}
    .fil3 {fill:#F7B64C}
   ]]>
  </style>
 </defs>
 <g id="Layer_x0020_1">
  <metadata id="CorelCorpID_0Corel-Layer"/>
  <g id="_2452790051440">
   <path class="fil0" d="M950.08 148.57l133.39 308.14 25.23 57.82c3.09,6.88 4.8,12.6 8.3,19.21l254.04 -109.13c8.89,-4.27 28.07,-13.89 37.6,-14.68 -0.93,-11.11 -116.05,-270.94 -131.27,-306.18l-44.81 -103.76c-10.29,2.4 -25.91,10.71 -36.95,15.33l-254.69 111.23c0.84,10.07 4.05,14.96 9.15,22.01z"/>
   <path class="fil1" d="M324.98 456.7l133.44 -308.14c5.27,-7.01 8.45,-11.92 9.29,-22.01l-291.63 -126.56 -21.25 50.28c-17.03,39.86 -151.42,342.24 -154.83,356.9l291.63 126.56 33.35 -77.03z"/>
   <path class="fil2" d="M506.23 188.22c-5.38,5.82 -102.1,225.28 -107.37,243.73 7.36,4.84 14.81,11.35 22.09,16.5 7.95,5.62 16.63,11.17 24.75,16.42 22.65,-19.57 34.88,-81.47 88.51,-52.71 15.36,8.23 24.47,31.18 13.25,52.84 -6.48,12.51 -27.94,37.8 -29.54,48.14 18.07,-19.48 40.92,-74.2 64.11,-85.13 21.63,-10.2 42.4,2.27 49.52,16.22 14.84,29.08 0.73,37.73 -6.74,56.82 29.56,-10.29 49.37,-10.37 62.38,16.71 12.13,25.26 -5.77,48.16 -19.86,67.25 23.57,-5.02 36.77,-13.83 55.42,7.31 21.65,24.56 6.28,40.43 -1.39,59.71 10.2,7.83 18.85,14.01 30.21,21.52 35.14,23.25 73.12,1.56 71.3,-35.24 -0.7,-14.18 -3.15,-10.84 -5.76,-22.05 19.32,10.22 38.02,13.73 55.82,-1.96 6.84,-6.02 11.54,-11.32 14.28,-21.69 3.55,-13.4 -1.65,-21.02 -4.07,-31.37 22.03,5.13 33.53,11.2 51.76,-6.02 18.97,-17.92 13.81,-24.27 11.52,-51.76 18.82,1.57 28.84,7.99 45.74,-3.79 14.73,-10.26 17.54,-15.17 17.54,-38.54 -12.08,-7.79 -0.99,-9.07 -26.86,-27.14l-160.18 -106.62c-10.9,-7.57 -20.4,-13.36 -31.51,-20.77 -66.95,-44.65 -42.58,13.52 -49.65,49.59 -17.54,89.54 -65.32,68.63 -79.28,49.04 -10.49,-14.72 -14.65,-40.27 -18.48,-61.34 -2.47,-13.57 -9.06,-61.02 -6.27,-72.45 3.85,-15.74 45.73,-49.98 58.92,-62.09 16.1,-14.77 39.5,-45.95 65.69,-52.32 -7.95,-12.52 -36.42,-27.3 -57.67,-27.89 -37.78,-1.04 -97.96,24.06 -134.57,36.26 -13.62,4.54 -53.35,15.43 -63.63,22.8z"/>
   <path class="fil3" d="M1009.7 461.15l8.44 -7.19c-4.12,-16.67 -19.19,-46.33 -26.97,-63.99 -9.52,-21.61 -17.86,-40.97 -27.63,-63.15 -17.71,-40.18 -36.33,-89.54 -55.53,-125.98l-70.04 -23.6c-22.07,-8.55 -52.76,-20.94 -75.87,-20.19 -26.18,6.37 -49.59,37.55 -65.69,52.32 -13.19,12.1 -55.07,46.34 -58.92,62.09 -2.8,11.43 3.8,58.88 6.27,72.45 3.83,21.07 7.99,46.62 18.48,61.34 13.96,19.59 61.74,40.5 79.28,-49.04 7.07,-36.07 -17.31,-94.24 49.65,-49.59 11.11,7.41 20.61,13.2 31.51,20.77l160.18 106.62c25.87,18.06 14.78,19.34 26.86,27.14z"/>
   <path class="fil3" d="M445.7 464.86c-10.03,19.34 -32.86,41.32 -10.36,68.24 6.6,7.9 19.35,15.12 30.34,16.69 17.64,2.52 25.94,-7.2 35.05,-13.3 -2.34,10.03 -14.51,28.51 7.38,50.4 21.3,21.31 39.79,10.49 53.15,7.38 0,24.9 4.15,33.75 19.11,44.17 16.82,11.72 32.87,11.1 49.67,-0.15 0,17.91 -0.94,29.04 7.72,39.05 5.4,6.24 20.22,15.26 30.94,16.13 30.62,2.5 41.03,-23.4 52.68,-41.43 7.67,-19.28 23.04,-35.16 1.39,-59.71 -18.64,-21.14 -31.84,-12.33 -55.42,-7.31 14.08,-19.09 31.99,-41.99 19.86,-67.25 -13.01,-27.09 -32.81,-27 -62.38,-16.71 7.47,-19.09 21.59,-27.75 6.74,-56.82 -7.13,-13.96 -27.89,-26.42 -49.52,-16.22 -23.2,10.93 -46.04,65.65 -64.11,85.13 1.59,-10.34 23.06,-35.64 29.54,-48.14 11.22,-21.67 2.11,-44.61 -13.25,-52.84 -53.63,-28.76 -65.86,33.14 -88.51,52.71z"/>
   <path class="fil4" d="M908.01 200.84c19.2,36.44 37.82,85.8 55.53,125.98 9.78,22.17 18.11,41.53 27.63,63.15 7.78,17.66 22.85,47.32 26.97,63.99 3.85,7.88 6.98,16.76 10.82,24.76 8.83,-0.74 47.3,-17.72 54.5,-22.01l-133.39 -308.14c-8.4,3.72 -17.51,7.31 -25.74,10.93 -7.45,3.27 -19.91,9.32 -27.44,11.08 0.75,9.07 7.43,23.59 11.11,30.27z"/>
   <path class="fil5" d="M324.98 456.7c8.39,4.79 44.22,21.14 54.69,22.01 2.43,-10.44 14.37,-37.39 19.18,-46.77 5.27,-18.45 101.99,-237.91 107.37,-243.73 1.95,-10.03 3.37,-8.48 5.5,-17.64 -7.64,-1.78 -18.28,-6.51 -25.68,-10.08 -10.03,-4.85 -18.01,-7.77 -27.62,-11.93l-133.44 308.14z"/>
  </g>
 </g>
</svg>
