<?xml version="1.0" encoding="UTF-8"?>
<!DOCTYPE svg PUBLIC "-//W3C//DTD SVG 1.1//EN" "http://www.w3.org/Graphics/SVG/1.1/DTD/svg11.dtd">
<!-- Creator: CorelDRAW 2019 (64-Bit) -->
<svg xmlns="http://www.w3.org/2000/svg" xml:space="preserve" width="0.843559in" height="0.843575in" version="1.1" style="shape-rendering:geometricPrecision; text-rendering:geometricPrecision; image-rendering:optimizeQuality; fill-rule:evenodd; clip-rule:evenodd"
viewBox="0 0 477.35 477.36"
 xmlns:xlink="http://www.w3.org/1999/xlink">
 <defs>
  <style type="text/css">
   <![CDATA[
    .fil8 {fill:#5DAD1D}
    .fil7 {fill:#66BD21}
    .fil6 {fill:#6ECD24}
    .fil5 {fill:#7FBF00}
    .fil1 {fill:#8B432D}
    .fil0 {fill:#B35C4B}
    .fil3 {fill:#FD3C65}
    .fil4 {fill:#FEC478}
    .fil2 {fill:#FEDBAB}
   ]]>
  </style>
 </defs>
 <g id="Layer_x0020_1">
  <metadata id="CorelCorpID_0Corel-Layer"/>
  <g id="plant.svg">
   <path class="fil0" d="M440.71 289.68l-47.27 110.48 -97.9 -2.52 -111.88 -2.8 -27.97 -113.28c12.59,-16.78 31.33,-26.57 51.74,-27.97 15.94,-33.84 50.35,-55.94 88.11,-55.94 37.76,0 72.16,22.1 88.11,55.94 23.77,1.68 45.31,15.11 57.06,36.08z"/>
   <path class="fil1" d="M440.71 289.68l-47.27 110.48 -97.9 -2.52 0 -199.98c37.76,0 72.16,22.09 88.11,55.94 23.78,1.68 45.31,15.1 57.06,36.08z"/>
   <path class="fil2" d="M471.76 326.32l-81.11 117.47c-15.66,20.98 -40.84,33.57 -81.11,33.57l-253.59 0 -27.97 -13.99 0 -142.37 13.99 -11.47 22.66 0c8.95,0 19.49,-3.36 26.48,-9.23 18.18,-16.22 41.11,-24.05 64.05,-24.05 32.17,0 51.19,11.75 71.88,29.93 2.52,1.96 6.43,3.36 9.23,3.36l87.27 0c15.38,0 27.97,12.59 27.97,27.97 0,15.38 -12.59,27.97 -27.97,27.97 0,0 -12.31,0 -27.97,0l-83.91 0c-7.83,0 -13.98,6.15 -13.98,13.99 0,7.83 6.15,13.98 13.98,13.98 0,0 52.86,0 83.91,0l37.2 0c5.32,0 15.38,-3.36 20.7,-8.95l75.52 -93.98c9.51,-10.35 25.45,-12.03 36.92,-3.64 12.59,9.23 15.11,27.13 5.87,39.44z"/>
   <path class="fil3" d="M55.94 477.36l-41.96 0c-7.72,0 -13.98,-6.26 -13.98,-13.99l0 -167.82c0,-7.72 6.26,-13.98 13.98,-13.98l13.99 0c15.45,0 27.97,12.52 27.97,27.97l0 167.82 0 0z"/>
   <g>
    <path class="fil4" d="M323.52 365.48c0,0 -12.31,0 -27.97,0l0 -55.94 27.97 0c15.38,0 27.97,12.59 27.97,27.97 0,15.38 -12.59,27.97 -27.97,27.97z"/>
    <path class="fil4" d="M471.76 326.32l-81.11 117.47c-15.66,20.98 -40.84,33.57 -81.11,33.57l-13.98 0 0 -83.91 37.2 0c5.31,0 15.38,-3.36 20.7,-8.95l75.52 -93.98c9.51,-10.35 25.45,-12.03 36.92,-3.64 12.59,9.23 15.1,27.13 5.87,39.44z"/>
   </g>
   <path class="fil5" d="M379.46 169.69l-55.94 0c-7.73,0 -13.98,-6.25 -13.98,-13.98l0 -27.97c0,-53.97 43.92,-99.76 97.9,-99.76 14.09,0 27.89,-5.71 37.86,-15.68l8.19 -8.19c4.01,-4 10.03,-5.22 15.24,-3.03 5.23,2.16 8.63,7.27 8.63,12.92l0 57.8c0,53.97 -43.92,97.9 -97.9,97.9z"/>
   <path class="fil6" d="M267.58 169.69l-55.94 0c-53.97,0 -97.9,-43.92 -97.9,-97.89l0 -57.8c0,-5.65 3.4,-10.76 8.63,-12.92 5.26,-2.17 11.23,-0.96 15.24,3.03l8.19 8.2c9.97,9.97 23.76,15.68 37.86,15.68 53.97,0 97.89,45.79 97.89,99.76l0 27.97c0,7.73 -6.25,13.98 -13.98,13.98z"/>
   <path class="fil7" d="M402.67 110.4l-68.81 58.74c-15.39,13.43 -24.34,32.73 -24.34,53.14l0 45.31c0,7.83 -6.15,13.99 -13.98,13.99 -7.83,0 -13.99,-6.15 -13.99,-13.99l0 -45.31c0,-20.42 -8.95,-39.72 -24.33,-53.14l-68.81 -58.74c-5.87,-5.04 -6.43,-13.99 -1.4,-19.86 5.04,-5.87 13.98,-6.43 19.86,-1.4l68.53 58.74c8.11,7.27 14.82,15.94 20.14,25.17 5.31,-9.23 12.03,-17.9 20.14,-25.17l68.53 -58.74c5.87,-5.04 14.82,-4.48 19.86,1.4 5.04,5.87 4.47,14.83 -1.4,19.86z"/>
   <path class="fil8" d="M402.67 110.4l-68.81 58.74c-15.39,13.43 -24.34,32.73 -24.34,53.14l0 45.31c0,7.83 -6.15,13.99 -13.98,13.99l0 -108.52c5.31,-9.23 12.03,-17.9 20.14,-25.17l68.53 -58.74c5.87,-5.04 14.82,-4.48 19.86,1.4 5.04,5.87 4.47,14.82 -1.4,19.86z"/>
   <path class="fil7" d="M326.31 299.75c-1.68,0.56 -3.08,0.84 -4.75,0.84 -5.59,0 -11.19,-3.64 -13.14,-9.51 -1.12,-3.64 -5.31,-9.51 -12.87,-9.51 -7.55,0 -11.75,5.87 -12.87,9.51 -2.52,7.27 -10.35,11.19 -17.9,8.67 -7.27,-2.52 -11.19,-10.63 -8.67,-17.9 5.04,-13.98 19.02,-28.25 39.44,-28.25 20.42,0 34.4,14.27 39.44,28.25 2.52,7.27 -1.4,15.38 -8.67,17.9z"/>
   <path class="fil8" d="M326.31 299.75c-1.68,0.56 -3.08,0.84 -4.75,0.84 -5.59,0 -11.19,-3.64 -13.14,-9.51 -1.12,-3.64 -5.31,-9.51 -12.87,-9.51l0 -27.97c20.42,0 34.4,14.27 39.44,28.25 2.52,7.27 -1.4,15.38 -8.67,17.9z"/>
   <g>
   </g>
   <g>
   </g>
   <g>
   </g>
   <g>
   </g>
   <g>
   </g>
   <g>
   </g>
   <g>
   </g>
   <g>
   </g>
   <g>
   </g>
   <g>
   </g>
   <g>
   </g>
   <g>
   </g>
   <g>
   </g>
   <g>
   </g>
   <g>
   </g>
  </g>
 </g>
</svg>
